{
	"asset":{
		"copyright":"2022 (c) PISX",
		"generator":"Solidworks to GLTF",
		"version":"2.0"
	},
	"accessors":[
		{
			"bufferView":0,
			"byteOffset":0,
			"componentType":5125,
			"count":168,
			"max":[
				57
			],
			"min":[
				0
			],
			"type":"SCALAR"
		},
		{
			"bufferView":1,
			"byteOffset":0,
			"componentType":5126,
			"count":58,
			"max":[
				18.000000,
				6.666667,
				19.955276
			],
			"min":[
				0.000000,
				-20.000000,
				-19.955276
			],
			"type":"VEC3"
		},
		{
			"bufferView":2,
			"byteOffset":0,
			"componentType":5126,
			"count":58,
			"max":[
				0.000000,
				0.333333,
				0.997764
			],
			"min":[
				0.000000,
				-1.000000,
				-0.997764
			],
			"type":"VEC3"
		},
		{
			"bufferView":0,
			"byteOffset":672,
			"componentType":5125,
			"count":126,
			"max":[
				43
			],
			"min":[
				0
			],
			"type":"SCALAR"
		},
		{
			"bufferView":1,
			"byteOffset":696,
			"componentType":5126,
			"count":44,
			"max":[
				29.000000,
				33.955601,
				13.000000
			],
			"min":[
				0.000000,
				21.000000,
				-13.000000
			],
			"type":"VEC3"
		},
		{
			"bufferView":2,
			"byteOffset":696,
			"componentType":5126,
			"count":44,
			"max":[
				0.000000,
				0.996584,
				1.000000
			],
			"min":[
				0.000000,
				-0.000000,
				-1.000000
			],
			"type":"VEC3"
		},
		{
			"bufferView":0,
			"byteOffset":1176,
			"componentType":5125,
			"count":114,
			"max":[
				39
			],
			"min":[
				0
			],
			"type":"SCALAR"
		},
		{
			"bufferView":1,
			"byteOffset":1224,
			"componentType":5126,
			"count":40,
			"max":[
				29.000000,
				0.000000,
				13.000000
			],
			"min":[
				18.000000,
				-12.955599,
				-13.000000
			],
			"type":"VEC3"
		},
		{
			"bufferView":2,
			"byteOffset":1224,
			"componentType":5126,
			"count":40,
			"max":[
				0.000000,
				0.000000,
				1.000000
			],
			"min":[
				0.000000,
				-0.996584,
				-1.000000
			],
			"type":"VEC3"
		},
		{
			"bufferView":0,
			"byteOffset":1632,
			"componentType":5125,
			"count":198,
			"max":[
				65
			],
			"min":[
				0
			],
			"type":"SCALAR"
		},
		{
			"bufferView":1,
			"byteOffset":1704,
			"componentType":5126,
			"count":66,
			"max":[
				33.000000,
				30.988672,
				10.000000
			],
			"min":[
				29.000000,
				11.011327,
				-9.954719
			],
			"type":"VEC3"
		},
		{
			"bufferView":2,
			"byteOffset":1704,
			"componentType":5126,
			"count":66,
			"max":[
				0.000000,
				0.998867,
				1.000000
			],
			"min":[
				0.000000,
				-0.998867,
				-0.995472
			],
			"type":"VEC3"
		},
		{
			"bufferView":0,
			"byteOffset":2424,
			"componentType":5125,
			"count":144,
			"max":[
				49
			],
			"min":[
				0
			],
			"type":"SCALAR"
		},
		{
			"bufferView":1,
			"byteOffset":2496,
			"componentType":5126,
			"count":50,
			"max":[
				13.000000,
				31.000000,
				9.996518
			],
			"min":[
				0.000000,
				14.214286,
				-9.996518
			],
			"type":"VEC3"
		},
		{
			"bufferView":2,
			"byteOffset":2496,
			"componentType":5126,
			"count":50,
			"max":[
				0.000000,
				0.678571,
				0.999652
			],
			"min":[
				0.000000,
				-1.000000,
				-0.999652
			],
			"type":"VEC3"
		},
		{
			"bufferView":0,
			"byteOffset":3000,
			"componentType":5125,
			"count":210,
			"max":[
				71
			],
			"min":[
				0
			],
			"type":"SCALAR"
		},
		{
			"bufferView":1,
			"byteOffset":3096,
			"componentType":5126,
			"count":72,
			"max":[
				13.000000,
				14.214286,
				15.993736
			],
			"min":[
				0.000000,
				-15.953652,
				-15.993736
			],
			"type":"VEC3"
		},
		{
			"bufferView":2,
			"byteOffset":3096,
			"componentType":5126,
			"count":72,
			"max":[
				0.000000,
				0.997103,
				0.999609
			],
			"min":[
				0.000000,
				-0.888393,
				-0.999609
			],
			"type":"VEC3"
		},
		{
			"bufferView":0,
			"byteOffset":3840,
			"componentType":5125,
			"count":156,
			"max":[
				51
			],
			"min":[
				0
			],
			"type":"SCALAR"
		},
		{
			"bufferView":1,
			"byteOffset":3960,
			"componentType":5126,
			"count":52,
			"max":[
				29.000000,
				5.956253,
				6.000000
			],
			"min":[
				13.000000,
				-5.956253,
				-6.000000
			],
			"type":"VEC3"
		},
		{
			"bufferView":2,
			"byteOffset":3960,
			"componentType":5126,
			"count":52,
			"max":[
				0.000000,
				0.992709,
				1.000000
			],
			"min":[
				0.000000,
				-0.992709,
				-1.000000
			],
			"type":"VEC3"
		},
		{
			"bufferView":0,
			"byteOffset":4464,
			"componentType":5125,
			"count":156,
			"max":[
				51
			],
			"min":[
				0
			],
			"type":"SCALAR"
		},
		{
			"bufferView":1,
			"byteOffset":4584,
			"componentType":5126,
			"count":52,
			"max":[
				33.000000,
				26.956253,
				6.000000
			],
			"min":[
				13.000000,
				15.043747,
				-6.000000
			],
			"type":"VEC3"
		},
		{
			"bufferView":2,
			"byteOffset":4584,
			"componentType":5126,
			"count":52,
			"max":[
				0.000000,
				0.992709,
				1.000000
			],
			"min":[
				0.000000,
				-0.992709,
				-1.000000
			],
			"type":"VEC3"
		},
		{
			"bufferView":0,
			"byteOffset":5088,
			"componentType":5125,
			"count":6,
			"max":[
				3
			],
			"min":[
				0
			],
			"type":"SCALAR"
		},
		{
			"bufferView":1,
			"byteOffset":5208,
			"componentType":5126,
			"count":4,
			"max":[
				18.000000,
				25.333334,
				18.856180
			],
			"min":[
				0.000000,
				6.666667,
				12.256517
			],
			"type":"VEC3"
		},
		{
			"bufferView":0,
			"byteOffset":5112,
			"componentType":5125,
			"count":6,
			"max":[
				3
			],
			"min":[
				0
			],
			"type":"SCALAR"
		},
		{
			"bufferView":1,
			"byteOffset":5256,
			"componentType":5126,
			"count":4,
			"max":[
				18.000000,
				25.333334,
				-12.256517
			],
			"min":[
				0.000000,
				6.666667,
				-18.856180
			],
			"type":"VEC3"
		},
		{
			"bufferView":0,
			"byteOffset":5136,
			"componentType":5125,
			"count":312,
			"max":[
				103
			],
			"min":[
				0
			],
			"type":"SCALAR"
		},
		{
			"bufferView":1,
			"byteOffset":5304,
			"componentType":5126,
			"count":104,
			"max":[
				0.000000,
				33.955601,
				19.955276
			],
			"min":[
				0.000000,
				-20.000000,
				-19.955276
			],
			"type":"VEC3"
		},
		{
			"bufferView":0,
			"byteOffset":6384,
			"componentType":5125,
			"count":165,
			"max":[
				56
			],
			"min":[
				0
			],
			"type":"SCALAR"
		},
		{
			"bufferView":1,
			"byteOffset":6552,
			"componentType":5126,
			"count":57,
			"max":[
				18.000000,
				25.333334,
				19.955276
			],
			"min":[
				18.000000,
				-20.000000,
				-19.955276
			],
			"type":"VEC3"
		},
		{
			"bufferView":0,
			"byteOffset":7044,
			"componentType":5125,
			"count":6,
			"max":[
				3
			],
			"min":[
				0
			],
			"type":"SCALAR"
		},
		{
			"bufferView":1,
			"byteOffset":7236,
			"componentType":5126,
			"count":4,
			"max":[
				29.000000,
				21.000000,
				-13.000000
			],
			"min":[
				18.000000,
				0.000000,
				-13.000000
			],
			"type":"VEC3"
		},
		{
			"bufferView":0,
			"byteOffset":7068,
			"componentType":5125,
			"count":6,
			"max":[
				3
			],
			"min":[
				0
			],
			"type":"SCALAR"
		},
		{
			"bufferView":1,
			"byteOffset":7284,
			"componentType":5126,
			"count":4,
			"max":[
				29.000000,
				21.000000,
				13.000000
			],
			"min":[
				18.000000,
				0.000000,
				13.000000
			],
			"type":"VEC3"
		},
		{
			"bufferView":0,
			"byteOffset":7092,
			"componentType":5125,
			"count":303,
			"max":[
				98
			],
			"min":[
				0
			],
			"type":"SCALAR"
		},
		{
			"bufferView":1,
			"byteOffset":7332,
			"componentType":5126,
			"count":99,
			"max":[
				29.000000,
				33.955601,
				13.000000
			],
			"min":[
				29.000000,
				-12.955599,
				-13.000000
			],
			"type":"VEC3"
		},
		{
			"bufferView":0,
			"byteOffset":8304,
			"componentType":5125,
			"count":177,
			"max":[
				58
			],
			"min":[
				0
			],
			"type":"SCALAR"
		},
		{
			"bufferView":1,
			"byteOffset":8520,
			"componentType":5126,
			"count":59,
			"max":[
				33.000000,
				30.988672,
				10.000000
			],
			"min":[
				33.000000,
				11.011327,
				-9.954719
			],
			"type":"VEC3"
		},
		{
			"bufferView":0,
			"byteOffset":9012,
			"componentType":5125,
			"count":339,
			"max":[
				110
			],
			"min":[
				0
			],
			"type":"SCALAR"
		},
		{
			"bufferView":1,
			"byteOffset":9228,
			"componentType":5126,
			"count":111,
			"max":[
				13.000000,
				31.000000,
				15.993736
			],
			"min":[
				13.000000,
				-15.953652,
				-15.993736
			],
			"type":"VEC3"
		}

	],
	"buffers":[
		{
			"uri":"data:application/octet-stream;base64,",
			"byteLength":26136
		}
	],
	"bufferViews":[
		{
			"buffer":0,
			"byteOffset":0,
			"target":34963,
			"byteLength":10368
		},
		{
			"buffer":0,
			"byteOffset":10368,
			"byteStride":12,
			"target":34962,
			"byteLength":10560
		},
		{
			"buffer":0,
			"byteOffset":20928,
			"byteStride":12,
			"target":34962,
			"byteLength":5208
		}
	],
	"materials":[
		{
			"pbrMetallicRoughness":{
				"baseColorFactor":[
					0.792157,
					0.819608,
					0.933333,
					1.000000
				],
				"roughnessFactor":0.500000,
				"metallicFactor":0.250000
			},
			"doubleSided":true,
			"name":""
		}
	],
	"meshes":[
		{
		"primitives":[
			{
			"indices":0,
			"material":0,
			"mode":4,
				"attributes":{
					"POSITION":1,
					"NORMAL":2
				}
			},
			{
			"indices":3,
			"material":0,
			"mode":4,
				"attributes":{
					"POSITION":4,
					"NORMAL":5
				}
			},
			{
			"indices":6,
			"material":0,
			"mode":4,
				"attributes":{
					"POSITION":7,
					"NORMAL":8
				}
			},
			{
			"indices":9,
			"material":0,
			"mode":4,
				"attributes":{
					"POSITION":10,
					"NORMAL":11
				}
			},
			{
			"indices":12,
			"material":0,
			"mode":4,
				"attributes":{
					"POSITION":13,
					"NORMAL":14
				}
			},
			{
			"indices":15,
			"material":0,
			"mode":4,
				"attributes":{
					"POSITION":16,
					"NORMAL":17
				}
			},
			{
			"indices":18,
			"material":0,
			"mode":4,
				"attributes":{
					"POSITION":19,
					"NORMAL":20
				}
			},
			{
			"indices":21,
			"material":0,
			"mode":4,
				"attributes":{
					"POSITION":22,
					"NORMAL":23
				}
			},
			{
			"indices":24,
			"material":0,
			"mode":4,
				"attributes":{
					"POSITION":25
				}
			},
			{
			"indices":26,
			"material":0,
			"mode":4,
				"attributes":{
					"POSITION":27
				}
			},
			{
			"indices":28,
			"material":0,
			"mode":4,
				"attributes":{
					"POSITION":29
				}
			},
			{
			"indices":30,
			"material":0,
			"mode":4,
				"attributes":{
					"POSITION":31
				}
			},
			{
			"indices":32,
			"material":0,
			"mode":4,
				"attributes":{
					"POSITION":33
				}
			},
			{
			"indices":34,
			"material":0,
			"mode":4,
				"attributes":{
					"POSITION":35
				}
			},
			{
			"indices":36,
			"material":0,
			"mode":4,
				"attributes":{
					"POSITION":37
				}
			},
			{
			"indices":38,
			"material":0,
			"mode":4,
				"attributes":{
					"POSITION":39
				}
			},
			{
			"indices":40,
			"material":0,
			"mode":4,
				"attributes":{
					"POSITION":41
				}
			}
		]
		}
	],
	"nodes":[
		{
			"mesh":0,
			"name":""
		}
	],
	"scenes":[
		{
			"nodes":[
				0
			],
			"name":""
		}
	],
	"scene":0
}
