{
	"asset":{
		"copyright":"2022 (c) PISX",
		"generator":"Solidworks to GLTF",
		"version":"2.0"
	},
	"accessors":[
		{
			"bufferView":0,
			"byteOffset":0,
			"componentType":5125,
			"count":138,
			"max":[
				47
			],
			"min":[
				0
			],
			"type":"SCALAR"
		},
		{
			"bufferView":1,
			"byteOffset":0,
			"componentType":5126,
			"count":48,
			"max":[
				12.000000,
				33.966446,
				12.000000
			],
			"min":[
				-12.000000,
				22.000000,
				0.000000
			],
			"type":"VEC3"
		},
		{
			"bufferView":2,
			"byteOffset":0,
			"componentType":5126,
			"count":48,
			"max":[
				1.000000,
				0.997204,
				0.000000
			],
			"min":[
				-1.000000,
				0.000000,
				0.000000
			],
			"type":"VEC3"
		},
		{
			"bufferView":0,
			"byteOffset":552,
			"componentType":5125,
			"count":192,
			"max":[
				63
			],
			"min":[
				0
			],
			"type":"SCALAR"
		},
		{
			"bufferView":1,
			"byteOffset":576,
			"componentType":5126,
			"count":64,
			"max":[
				6.000000,
				27.967131,
				12.000000
			],
			"min":[
				-6.000000,
				16.032869,
				0.000000
			],
			"type":"VEC3"
		},
		{
			"bufferView":2,
			"byteOffset":576,
			"componentType":5126,
			"count":64,
			"max":[
				1.000000,
				0.994522,
				0.000000
			],
			"min":[
				-1.000000,
				-0.994522,
				0.000000
			],
			"type":"VEC3"
		},
		{
			"bufferView":0,
			"byteOffset":1320,
			"componentType":5125,
			"count":72,
			"max":[
				25
			],
			"min":[
				0
			],
			"type":"SCALAR"
		},
		{
			"bufferView":1,
			"byteOffset":1344,
			"componentType":5126,
			"count":26,
			"max":[
				4.000000,
				8.000000,
				23.000000
			],
			"min":[
				-4.000000,
				0.000000,
				19.000000
			],
			"type":"VEC3"
		},
		{
			"bufferView":2,
			"byteOffset":1344,
			"componentType":5126,
			"count":26,
			"max":[
				1.000000,
				0.000000,
				1.000000
			],
			"min":[
				-1.000000,
				0.000000,
				-0.000000
			],
			"type":"VEC3"
		},
		{
			"bufferView":0,
			"byteOffset":1608,
			"componentType":5125,
			"count":18,
			"max":[
				7
			],
			"min":[
				0
			],
			"type":"SCALAR"
		},
		{
			"bufferView":1,
			"byteOffset":1656,
			"componentType":5126,
			"count":8,
			"max":[
				19.000000,
				13.000000,
				23.000000
			],
			"min":[
				4.000000,
				0.000000,
				23.000000
			],
			"type":"VEC3"
		},
		{
			"bufferView":0,
			"byteOffset":1680,
			"componentType":5125,
			"count":6,
			"max":[
				3
			],
			"min":[
				0
			],
			"type":"SCALAR"
		},
		{
			"bufferView":1,
			"byteOffset":1752,
			"componentType":5126,
			"count":4,
			"max":[
				19.000000,
				6.000000,
				23.000000
			],
			"min":[
				19.000000,
				0.000000,
				0.000000
			],
			"type":"VEC3"
		},
		{
			"bufferView":0,
			"byteOffset":1704,
			"componentType":5125,
			"count":6,
			"max":[
				3
			],
			"min":[
				0
			],
			"type":"SCALAR"
		},
		{
			"bufferView":1,
			"byteOffset":1800,
			"componentType":5126,
			"count":4,
			"max":[
				19.000000,
				6.000000,
				23.000000
			],
			"min":[
				12.000000,
				6.000000,
				0.000000
			],
			"type":"VEC3"
		},
		{
			"bufferView":0,
			"byteOffset":1728,
			"componentType":5125,
			"count":12,
			"max":[
				5
			],
			"min":[
				0
			],
			"type":"SCALAR"
		},
		{
			"bufferView":1,
			"byteOffset":1848,
			"componentType":5126,
			"count":6,
			"max":[
				12.000000,
				22.000000,
				23.000000
			],
			"min":[
				12.000000,
				6.000000,
				0.000000
			],
			"type":"VEC3"
		},
		{
			"bufferView":0,
			"byteOffset":1776,
			"componentType":5125,
			"count":18,
			"max":[
				7
			],
			"min":[
				0
			],
			"type":"SCALAR"
		},
		{
			"bufferView":1,
			"byteOffset":1920,
			"componentType":5126,
			"count":8,
			"max":[
				12.000000,
				13.000000,
				23.000000
			],
			"min":[
				-12.000000,
				13.000000,
				12.000000
			],
			"type":"VEC3"
		},
		{
			"bufferView":0,
			"byteOffset":1848,
			"componentType":5125,
			"count":12,
			"max":[
				5
			],
			"min":[
				0
			],
			"type":"SCALAR"
		},
		{
			"bufferView":1,
			"byteOffset":2016,
			"componentType":5126,
			"count":6,
			"max":[
				-12.000000,
				22.000000,
				23.000000
			],
			"min":[
				-12.000000,
				6.000000,
				0.000000
			],
			"type":"VEC3"
		},
		{
			"bufferView":0,
			"byteOffset":1896,
			"componentType":5125,
			"count":6,
			"max":[
				3
			],
			"min":[
				0
			],
			"type":"SCALAR"
		},
		{
			"bufferView":1,
			"byteOffset":2088,
			"componentType":5126,
			"count":4,
			"max":[
				-12.000000,
				6.000000,
				23.000000
			],
			"min":[
				-19.000000,
				6.000000,
				0.000000
			],
			"type":"VEC3"
		},
		{
			"bufferView":0,
			"byteOffset":1920,
			"componentType":5125,
			"count":6,
			"max":[
				3
			],
			"min":[
				0
			],
			"type":"SCALAR"
		},
		{
			"bufferView":1,
			"byteOffset":2136,
			"componentType":5126,
			"count":4,
			"max":[
				-19.000000,
				6.000000,
				23.000000
			],
			"min":[
				-19.000000,
				0.000000,
				0.000000
			],
			"type":"VEC3"
		},
		{
			"bufferView":0,
			"byteOffset":1944,
			"componentType":5125,
			"count":45,
			"max":[
				16
			],
			"min":[
				0
			],
			"type":"SCALAR"
		},
		{
			"bufferView":1,
			"byteOffset":2184,
			"componentType":5126,
			"count":17,
			"max":[
				19.000000,
				0.000000,
				23.000000
			],
			"min":[
				-19.000000,
				0.000000,
				0.000000
			],
			"type":"VEC3"
		},
		{
			"bufferView":0,
			"byteOffset":2124,
			"componentType":5125,
			"count":18,
			"max":[
				7
			],
			"min":[
				0
			],
			"type":"SCALAR"
		},
		{
			"bufferView":1,
			"byteOffset":2388,
			"componentType":5126,
			"count":8,
			"max":[
				-4.000000,
				13.000000,
				23.000000
			],
			"min":[
				-19.000000,
				0.000000,
				23.000000
			],
			"type":"VEC3"
		},
		{
			"bufferView":0,
			"byteOffset":2196,
			"componentType":5125,
			"count":174,
			"max":[
				57
			],
			"min":[
				0
			],
			"type":"SCALAR"
		},
		{
			"bufferView":1,
			"byteOffset":2484,
			"componentType":5126,
			"count":58,
			"max":[
				19.000000,
				33.966446,
				0.000000
			],
			"min":[
				-19.000000,
				0.000000,
				0.000000
			],
			"type":"VEC3"
		},
		{
			"bufferView":0,
			"byteOffset":2892,
			"componentType":5125,
			"count":126,
			"max":[
				43
			],
			"min":[
				0
			],
			"type":"SCALAR"
		},
		{
			"bufferView":1,
			"byteOffset":3180,
			"componentType":5126,
			"count":44,
			"max":[
				12.000000,
				33.124298,
				12.000000
			],
			"min":[
				-12.000000,
				13.000000,
				12.000000
			],
			"type":"VEC3"
		},
		{
			"bufferView":0,
			"byteOffset":3396,
			"componentType":5125,
			"count":6,
			"max":[
				3
			],
			"min":[
				0
			],
			"type":"SCALAR"
		},
		{
			"bufferView":1,
			"byteOffset":3708,
			"componentType":5126,
			"count":4,
			"max":[
				-7.000000,
				13.000000,
				23.000000
			],
			"min":[
				-7.000000,
				8.000000,
				16.000000
			],
			"type":"VEC3"
		},
		{
			"bufferView":0,
			"byteOffset":3420,
			"componentType":5125,
			"count":6,
			"max":[
				3
			],
			"min":[
				0
			],
			"type":"SCALAR"
		},
		{
			"bufferView":1,
			"byteOffset":3756,
			"componentType":5126,
			"count":4,
			"max":[
				7.000000,
				13.000000,
				16.000000
			],
			"min":[
				-7.000000,
				8.000000,
				16.000000
			],
			"type":"VEC3"
		},
		{
			"bufferView":0,
			"byteOffset":3444,
			"componentType":5125,
			"count":6,
			"max":[
				3
			],
			"min":[
				0
			],
			"type":"SCALAR"
		},
		{
			"bufferView":1,
			"byteOffset":3804,
			"componentType":5126,
			"count":4,
			"max":[
				7.000000,
				13.000000,
				23.000000
			],
			"min":[
				7.000000,
				8.000000,
				16.000000
			],
			"type":"VEC3"
		},
		{
			"bufferView":0,
			"byteOffset":3468,
			"componentType":5125,
			"count":45,
			"max":[
				16
			],
			"min":[
				0
			],
			"type":"SCALAR"
		},
		{
			"bufferView":1,
			"byteOffset":3852,
			"componentType":5126,
			"count":17,
			"max":[
				7.000000,
				8.000000,
				23.000000
			],
			"min":[
				-7.000000,
				8.000000,
				16.000000
			],
			"type":"VEC3"
		},
		{
			"bufferView":0,
			"byteOffset":3648,
			"componentType":5125,
			"count":6,
			"max":[
				3
			],
			"min":[
				0
			],
			"type":"SCALAR"
		},
		{
			"bufferView":1,
			"byteOffset":4056,
			"componentType":5126,
			"count":4,
			"max":[
				-4.500000,
				33.124298,
				12.000000
			],
			"min":[
				-4.500000,
				25.968626,
				6.000000
			],
			"type":"VEC3"
		},
		{
			"bufferView":0,
			"byteOffset":3672,
			"componentType":5125,
			"count":6,
			"max":[
				3
			],
			"min":[
				0
			],
			"type":"SCALAR"
		},
		{
			"bufferView":1,
			"byteOffset":4104,
			"componentType":5126,
			"count":4,
			"max":[
				4.500000,
				33.124298,
				12.000000
			],
			"min":[
				4.500000,
				25.968626,
				6.000000
			],
			"type":"VEC3"
		},
		{
			"bufferView":0,
			"byteOffset":3696,
			"componentType":5125,
			"count":48,
			"max":[
				17
			],
			"min":[
				0
			],
			"type":"SCALAR"
		},
		{
			"bufferView":1,
			"byteOffset":4152,
			"componentType":5126,
			"count":18,
			"max":[
				4.500000,
				33.966446,
				6.000000
			],
			"min":[
				-4.500000,
				25.968626,
				6.000000
			],
			"type":"VEC3"
		}

	],
	"buffers":[
		{
			"uri":"data:application/octet-stream;base64,",
			"byteLength":9912
		}
	],
	"bufferViews":[
		{
			"buffer":0,
			"byteOffset":0,
			"target":34963,
			"byteLength":3888
		},
		{
			"buffer":0,
			"byteOffset":3888,
			"byteStride":12,
			"target":34962,
			"byteLength":4368
		},
		{
			"buffer":0,
			"byteOffset":8256,
			"byteStride":12,
			"target":34962,
			"byteLength":1656
		}
	],
	"materials":[
		{
			"pbrMetallicRoughness":{
				"baseColorFactor":[
					0.788235,
					0.823529,
					0.937255,
					1.000000
				],
				"roughnessFactor":0.500000,
				"metallicFactor":0.250000
			},
			"alphaMode":"BLEND",
			"extensions":{
				"KHR_materials_transmission":{
					"transmissionFactor":0.50
				}
			},
			"doubleSided":true,
			"name":""
		}
	],
	"meshes":[
		{
		"primitives":[
			{
			"indices":0,
			"material":0,
			"mode":4,
				"attributes":{
					"POSITION":1,
					"NORMAL":2
				}
			},
			{
			"indices":3,
			"material":0,
			"mode":4,
				"attributes":{
					"POSITION":4,
					"NORMAL":5
				}
			},
			{
			"indices":6,
			"material":0,
			"mode":4,
				"attributes":{
					"POSITION":7,
					"NORMAL":8
				}
			},
			{
			"indices":9,
			"material":0,
			"mode":4,
				"attributes":{
					"POSITION":10
				}
			},
			{
			"indices":11,
			"material":0,
			"mode":4,
				"attributes":{
					"POSITION":12
				}
			},
			{
			"indices":13,
			"material":0,
			"mode":4,
				"attributes":{
					"POSITION":14
				}
			},
			{
			"indices":15,
			"material":0,
			"mode":4,
				"attributes":{
					"POSITION":16
				}
			},
			{
			"indices":17,
			"material":0,
			"mode":4,
				"attributes":{
					"POSITION":18
				}
			},
			{
			"indices":19,
			"material":0,
			"mode":4,
				"attributes":{
					"POSITION":20
				}
			},
			{
			"indices":21,
			"material":0,
			"mode":4,
				"attributes":{
					"POSITION":22
				}
			},
			{
			"indices":23,
			"material":0,
			"mode":4,
				"attributes":{
					"POSITION":24
				}
			},
			{
			"indices":25,
			"material":0,
			"mode":4,
				"attributes":{
					"POSITION":26
				}
			},
			{
			"indices":27,
			"material":0,
			"mode":4,
				"attributes":{
					"POSITION":28
				}
			},
			{
			"indices":29,
			"material":0,
			"mode":4,
				"attributes":{
					"POSITION":30
				}
			},
			{
			"indices":31,
			"material":0,
			"mode":4,
				"attributes":{
					"POSITION":32
				}
			},
			{
			"indices":33,
			"material":0,
			"mode":4,
				"attributes":{
					"POSITION":34
				}
			},
			{
			"indices":35,
			"material":0,
			"mode":4,
				"attributes":{
					"POSITION":36
				}
			},
			{
			"indices":37,
			"material":0,
			"mode":4,
				"attributes":{
					"POSITION":38
				}
			},
			{
			"indices":39,
			"material":0,
			"mode":4,
				"attributes":{
					"POSITION":40
				}
			},
			{
			"indices":41,
			"material":0,
			"mode":4,
				"attributes":{
					"POSITION":42
				}
			},
			{
			"indices":43,
			"material":0,
			"mode":4,
				"attributes":{
					"POSITION":44
				}
			},
			{
			"indices":45,
			"material":0,
			"mode":4,
				"attributes":{
					"POSITION":46
				}
			}
		]
		}
	],
	"nodes":[
		{
			"mesh":0,
			"name":""
		}
	],
	"scenes":[
		{
			"nodes":[
				0
			],
			"name":""
		}
	],
	"scene":0
}
