{
	"asset":{
		"copyright":"2022 (c) PISX",
		"generator":"Solidworks to GLTF",
		"version":"2.0"
	},
	"accessors":[
		{
			"bufferView":0,
			"byteOffset":0,
			"componentType":5125,
			"count":123,
			"max":[
				42
			],
			"min":[
				0
			],
			"type":"SCALAR"
		},
		{
			"bufferView":1,
			"byteOffset":0,
			"componentType":5126,
			"count":43,
			"max":[
				14.000000,
				41.952183,
				16.000000
			],
			"min":[
				-14.000000,
				28.000000,
				0.000000
			],
			"type":"VEC3"
		},
		{
			"bufferView":2,
			"byteOffset":0,
			"componentType":5126,
			"count":43,
			"max":[
				1.000000,
				0.996584,
				0.000000
			],
			"min":[
				-1.000000,
				0.000000,
				-0.000000
			],
			"type":"VEC3"
		},
		{
			"bufferView":0,
			"byteOffset":492,
			"componentType":5125,
			"count":78,
			"max":[
				27
			],
			"min":[
				0
			],
			"type":"SCALAR"
		},
		{
			"bufferView":1,
			"byteOffset":516,
			"componentType":5126,
			"count":28,
			"max":[
				-26.043747,
				7.000000,
				25.000000
			],
			"min":[
				-32.000000,
				0.000000,
				13.000000
			],
			"type":"VEC3"
		},
		{
			"bufferView":2,
			"byteOffset":516,
			"componentType":5126,
			"count":28,
			"max":[
				0.000000,
				0.000000,
				1.000000
			],
			"min":[
				-0.992709,
				0.000000,
				-1.000000
			],
			"type":"VEC3"
		},
		{
			"bufferView":0,
			"byteOffset":804,
			"componentType":5125,
			"count":162,
			"max":[
				53
			],
			"min":[
				0
			],
			"type":"SCALAR"
		},
		{
			"bufferView":1,
			"byteOffset":852,
			"componentType":5126,
			"count":54,
			"max":[
				7.000000,
				34.988159,
				16.000000
			],
			"min":[
				-6.952669,
				21.011843,
				0.000000
			],
			"type":"VEC3"
		},
		{
			"bufferView":2,
			"byteOffset":852,
			"componentType":5126,
			"count":54,
			"max":[
				0.993238,
				0.998308,
				0.000000
			],
			"min":[
				-1.000000,
				-0.998308,
				0.000000
			],
			"type":"VEC3"
		},
		{
			"bufferView":0,
			"byteOffset":1452,
			"componentType":5125,
			"count":60,
			"max":[
				21
			],
			"min":[
				0
			],
			"type":"SCALAR"
		},
		{
			"bufferView":1,
			"byteOffset":1500,
			"componentType":5126,
			"count":22,
			"max":[
				9.643651,
				14.000000,
				32.000000
			],
			"min":[
				-9.643651,
				11.000000,
				16.000000
			],
			"type":"VEC3"
		},
		{
			"bufferView":2,
			"byteOffset":1500,
			"componentType":5126,
			"count":22,
			"max":[
				0.567274,
				1.000000,
				0.000000
			],
			"min":[
				-0.567274,
				0.823529,
				0.000000
			],
			"type":"VEC3"
		},
		{
			"bufferView":0,
			"byteOffset":1692,
			"componentType":5125,
			"count":21,
			"max":[
				8
			],
			"min":[
				0
			],
			"type":"SCALAR"
		},
		{
			"bufferView":1,
			"byteOffset":1764,
			"componentType":5126,
			"count":9,
			"max":[
				-4.000000,
				14.000000,
				32.000000
			],
			"min":[
				-45.000000,
				-0.000000,
				32.000000
			],
			"type":"VEC3"
		},
		{
			"bufferView":0,
			"byteOffset":1776,
			"componentType":5125,
			"count":6,
			"max":[
				3
			],
			"min":[
				0
			],
			"type":"SCALAR"
		},
		{
			"bufferView":1,
			"byteOffset":1872,
			"componentType":5126,
			"count":4,
			"max":[
				14.000000,
				14.000000,
				32.000000
			],
			"min":[
				9.643651,
				14.000000,
				16.000000
			],
			"type":"VEC3"
		},
		{
			"bufferView":0,
			"byteOffset":1800,
			"componentType":5125,
			"count":6,
			"max":[
				3
			],
			"min":[
				0
			],
			"type":"SCALAR"
		},
		{
			"bufferView":1,
			"byteOffset":1920,
			"componentType":5126,
			"count":4,
			"max":[
				-45.000000,
				7.000000,
				32.000000
			],
			"min":[
				-45.000000,
				0.000000,
				25.000000
			],
			"type":"VEC3"
		},
		{
			"bufferView":0,
			"byteOffset":1824,
			"componentType":5125,
			"count":54,
			"max":[
				19
			],
			"min":[
				0
			],
			"type":"SCALAR"
		},
		{
			"bufferView":1,
			"byteOffset":1968,
			"componentType":5126,
			"count":20,
			"max":[
				-24.000000,
				7.000000,
				32.000000
			],
			"min":[
				-45.000000,
				7.000000,
				6.000000
			],
			"type":"VEC3"
		},
		{
			"bufferView":0,
			"byteOffset":2040,
			"componentType":5125,
			"count":24,
			"max":[
				9
			],
			"min":[
				0
			],
			"type":"SCALAR"
		},
		{
			"bufferView":1,
			"byteOffset":2208,
			"componentType":5126,
			"count":10,
			"max":[
				-10.286558,
				37.496666,
				6.000000
			],
			"min":[
				-45.000000,
				7.000000,
				6.000000
			],
			"type":"VEC3"
		},
		{
			"bufferView":0,
			"byteOffset":2136,
			"componentType":5125,
			"count":6,
			"max":[
				3
			],
			"min":[
				0
			],
			"type":"SCALAR"
		},
		{
			"bufferView":1,
			"byteOffset":2328,
			"componentType":5126,
			"count":4,
			"max":[
				-14.000000,
				28.000000,
				16.000000
			],
			"min":[
				-14.000000,
				14.000000,
				6.000000
			],
			"type":"VEC3"
		},
		{
			"bufferView":0,
			"byteOffset":2160,
			"componentType":5125,
			"count":174,
			"max":[
				57
			],
			"min":[
				0
			],
			"type":"SCALAR"
		},
		{
			"bufferView":1,
			"byteOffset":2376,
			"componentType":5126,
			"count":58,
			"max":[
				14.000000,
				41.952183,
				16.000000
			],
			"min":[
				-14.000000,
				11.000000,
				16.000000
			],
			"type":"VEC3"
		},
		{
			"bufferView":0,
			"byteOffset":2856,
			"componentType":5125,
			"count":135,
			"max":[
				44
			],
			"min":[
				0
			],
			"type":"SCALAR"
		},
		{
			"bufferView":1,
			"byteOffset":3072,
			"componentType":5126,
			"count":45,
			"max":[
				14.000000,
				41.952183,
				0.000000
			],
			"min":[
				-45.000000,
				0.000000,
				-0.000000
			],
			"type":"VEC3"
		},
		{
			"bufferView":0,
			"byteOffset":3396,
			"componentType":5125,
			"count":9,
			"max":[
				4
			],
			"min":[
				0
			],
			"type":"SCALAR"
		},
		{
			"bufferView":1,
			"byteOffset":3612,
			"componentType":5126,
			"count":5,
			"max":[
				-45.000000,
				7.000000,
				13.000000
			],
			"min":[
				-45.000000,
				0.000000,
				0.000000
			],
			"type":"VEC3"
		},
		{
			"bufferView":0,
			"byteOffset":3432,
			"componentType":5125,
			"count":15,
			"max":[
				6
			],
			"min":[
				0
			],
			"type":"SCALAR"
		},
		{
			"bufferView":1,
			"byteOffset":3672,
			"componentType":5126,
			"count":7,
			"max":[
				14.000000,
				14.000000,
				32.000000
			],
			"min":[
				4.000000,
				0.000000,
				32.000000
			],
			"type":"VEC3"
		},
		{
			"bufferView":0,
			"byteOffset":3492,
			"componentType":5125,
			"count":12,
			"max":[
				5
			],
			"min":[
				0
			],
			"type":"SCALAR"
		},
		{
			"bufferView":1,
			"byteOffset":3756,
			"componentType":5126,
			"count":6,
			"max":[
				14.000000,
				28.000000,
				32.000000
			],
			"min":[
				14.000000,
				0.000000,
				-0.000000
			],
			"type":"VEC3"
		},
		{
			"bufferView":0,
			"byteOffset":3540,
			"componentType":5125,
			"count":66,
			"max":[
				23
			],
			"min":[
				0
			],
			"type":"SCALAR"
		},
		{
			"bufferView":1,
			"byteOffset":3828,
			"componentType":5126,
			"count":24,
			"max":[
				14.000000,
				0.000000,
				32.000000
			],
			"min":[
				-45.000000,
				0.000000,
				0.000000
			],
			"type":"VEC3"
		},
		{
			"bufferView":0,
			"byteOffset":3804,
			"componentType":5125,
			"count":9,
			"max":[
				4
			],
			"min":[
				0
			],
			"type":"SCALAR"
		},
		{
			"bufferView":1,
			"byteOffset":4116,
			"componentType":5126,
			"count":5,
			"max":[
				-8.092771,
				39.423969,
				6.000000
			],
			"min":[
				-45.000000,
				7.000000,
				0.000000
			],
			"type":"VEC3"
		},
		{
			"bufferView":0,
			"byteOffset":3840,
			"componentType":5125,
			"count":3,
			"max":[
				2
			],
			"min":[
				0
			],
			"type":"SCALAR"
		},
		{
			"bufferView":1,
			"byteOffset":4176,
			"componentType":5126,
			"count":3,
			"max":[
				-8.092771,
				39.423969,
				6.000000
			],
			"min":[
				-10.286558,
				37.496666,
				6.000000
			],
			"type":"VEC3"
		},
		{
			"bufferView":0,
			"byteOffset":3852,
			"componentType":5125,
			"count":12,
			"max":[
				5
			],
			"min":[
				0
			],
			"type":"SCALAR"
		},
		{
			"bufferView":1,
			"byteOffset":4212,
			"componentType":5126,
			"count":6,
			"max":[
				-9.643651,
				14.000000,
				32.000000
			],
			"min":[
				-24.000000,
				14.000000,
				6.000000
			],
			"type":"VEC3"
		},
		{
			"bufferView":0,
			"byteOffset":3900,
			"componentType":5125,
			"count":6,
			"max":[
				3
			],
			"min":[
				0
			],
			"type":"SCALAR"
		},
		{
			"bufferView":1,
			"byteOffset":4284,
			"componentType":5126,
			"count":4,
			"max":[
				-24.000000,
				14.000000,
				32.000000
			],
			"min":[
				-24.000000,
				7.000000,
				6.000000
			],
			"type":"VEC3"
		},
		{
			"bufferView":0,
			"byteOffset":3924,
			"componentType":5125,
			"count":6,
			"max":[
				3
			],
			"min":[
				0
			],
			"type":"SCALAR"
		},
		{
			"bufferView":1,
			"byteOffset":4332,
			"componentType":5126,
			"count":4,
			"max":[
				-32.000000,
				7.000000,
				25.000000
			],
			"min":[
				-45.000000,
				0.000000,
				25.000000
			],
			"type":"VEC3"
		},
		{
			"bufferView":0,
			"byteOffset":3948,
			"componentType":5125,
			"count":6,
			"max":[
				3
			],
			"min":[
				0
			],
			"type":"SCALAR"
		},
		{
			"bufferView":1,
			"byteOffset":4380,
			"componentType":5126,
			"count":4,
			"max":[
				-32.000000,
				7.000000,
				13.000000
			],
			"min":[
				-45.000000,
				0.000000,
				13.000000
			],
			"type":"VEC3"
		},
		{
			"bufferView":0,
			"byteOffset":3972,
			"componentType":5125,
			"count":6,
			"max":[
				3
			],
			"min":[
				0
			],
			"type":"SCALAR"
		},
		{
			"bufferView":1,
			"byteOffset":4428,
			"componentType":5126,
			"count":4,
			"max":[
				-4.000000,
				11.477289,
				32.000000
			],
			"min":[
				-4.000000,
				-0.000000,
				24.000000
			],
			"type":"VEC3"
		},
		{
			"bufferView":0,
			"byteOffset":3996,
			"componentType":5125,
			"count":6,
			"max":[
				3
			],
			"min":[
				0
			],
			"type":"SCALAR"
		},
		{
			"bufferView":1,
			"byteOffset":4476,
			"componentType":5126,
			"count":4,
			"max":[
				4.000000,
				11.477289,
				32.000000
			],
			"min":[
				4.000000,
				0.000000,
				24.000000
			],
			"type":"VEC3"
		},
		{
			"bufferView":0,
			"byteOffset":4020,
			"componentType":5125,
			"count":15,
			"max":[
				6
			],
			"min":[
				0
			],
			"type":"SCALAR"
		},
		{
			"bufferView":1,
			"byteOffset":4524,
			"componentType":5126,
			"count":7,
			"max":[
				4.000000,
				11.477289,
				24.000000
			],
			"min":[
				-4.000000,
				-0.000000,
				24.000000
			],
			"type":"VEC3"
		}

	],
	"buffers":[
		{
			"uri":"data:application/octet-stream;base64,",
			"byteLength":10452
		}
	],
	"bufferViews":[
		{
			"buffer":0,
			"byteOffset":0,
			"target":34963,
			"byteLength":4080
		},
		{
			"buffer":0,
			"byteOffset":4080,
			"byteStride":12,
			"target":34962,
			"byteLength":4608
		},
		{
			"buffer":0,
			"byteOffset":8688,
			"byteStride":12,
			"target":34962,
			"byteLength":1764
		}
	],
	"materials":[
		{
			"pbrMetallicRoughness":{
				"baseColorFactor":[
					1.000000,
					1.000000,
					1.000000,
					1.000000
				],
				"roughnessFactor":0.500000,
				"metallicFactor":0.250000
			},
			"doubleSided":true,
			"name":""
		}
	],
	"meshes":[
		{
		"primitives":[
			{
			"indices":0,
			"material":0,
			"mode":4,
				"attributes":{
					"POSITION":1,
					"NORMAL":2
				}
			},
			{
			"indices":3,
			"material":0,
			"mode":4,
				"attributes":{
					"POSITION":4,
					"NORMAL":5
				}
			},
			{
			"indices":6,
			"material":0,
			"mode":4,
				"attributes":{
					"POSITION":7,
					"NORMAL":8
				}
			},
			{
			"indices":9,
			"material":0,
			"mode":4,
				"attributes":{
					"POSITION":10,
					"NORMAL":11
				}
			},
			{
			"indices":12,
			"material":0,
			"mode":4,
				"attributes":{
					"POSITION":13
				}
			},
			{
			"indices":14,
			"material":0,
			"mode":4,
				"attributes":{
					"POSITION":15
				}
			},
			{
			"indices":16,
			"material":0,
			"mode":4,
				"attributes":{
					"POSITION":17
				}
			},
			{
			"indices":18,
			"material":0,
			"mode":4,
				"attributes":{
					"POSITION":19
				}
			},
			{
			"indices":20,
			"material":0,
			"mode":4,
				"attributes":{
					"POSITION":21
				}
			},
			{
			"indices":22,
			"material":0,
			"mode":4,
				"attributes":{
					"POSITION":23
				}
			},
			{
			"indices":24,
			"material":0,
			"mode":4,
				"attributes":{
					"POSITION":25
				}
			},
			{
			"indices":26,
			"material":0,
			"mode":4,
				"attributes":{
					"POSITION":27
				}
			},
			{
			"indices":28,
			"material":0,
			"mode":4,
				"attributes":{
					"POSITION":29
				}
			},
			{
			"indices":30,
			"material":0,
			"mode":4,
				"attributes":{
					"POSITION":31
				}
			},
			{
			"indices":32,
			"material":0,
			"mode":4,
				"attributes":{
					"POSITION":33
				}
			},
			{
			"indices":34,
			"material":0,
			"mode":4,
				"attributes":{
					"POSITION":35
				}
			},
			{
			"indices":36,
			"material":0,
			"mode":4,
				"attributes":{
					"POSITION":37
				}
			},
			{
			"indices":38,
			"material":0,
			"mode":4,
				"attributes":{
					"POSITION":39
				}
			},
			{
			"indices":40,
			"material":0,
			"mode":4,
				"attributes":{
					"POSITION":41
				}
			},
			{
			"indices":42,
			"material":0,
			"mode":4,
				"attributes":{
					"POSITION":43
				}
			},
			{
			"indices":44,
			"material":0,
			"mode":4,
				"attributes":{
					"POSITION":45
				}
			},
			{
			"indices":46,
			"material":0,
			"mode":4,
				"attributes":{
					"POSITION":47
				}
			},
			{
			"indices":48,
			"material":0,
			"mode":4,
				"attributes":{
					"POSITION":49
				}
			},
			{
			"indices":50,
			"material":0,
			"mode":4,
				"attributes":{
					"POSITION":51
				}
			},
			{
			"indices":52,
			"material":0,
			"mode":4,
				"attributes":{
					"POSITION":53
				}
			}
		]
		}
	],
	"nodes":[
		{
			"mesh":0,
			"name":""
		}
	],
	"scenes":[
		{
			"nodes":[
				0
			],
			"name":""
		}
	],
	"scene":0
}
