{
	"asset":{
		"copyright":"2022 (c) PISX",
		"generator":"Solidworks to GLTF",
		"version":"2.0"
	},
	"accessors":[
		{
			"bufferView":0,
			"byteOffset":0,
			"componentType":5125,
			"count":540,
			"max":[
				175
			],
			"min":[
				0
			],
			"type":"SCALAR"
		},
		{
			"bufferView":1,
			"byteOffset":0,
			"componentType":5126,
			"count":176,
			"max":[
				22.981348,
				49.000000,
				23.000000
			],
			"min":[
				-22.981348,
				13.000000,
				-23.000000
			],
			"type":"VEC3"
		},
		{
			"bufferView":2,
			"byteOffset":0,
			"componentType":5126,
			"count":176,
			"max":[
				0.999189,
				0.000000,
				1.000000
			],
			"min":[
				-0.999189,
				0.000000,
				-1.000000
			],
			"type":"VEC3"
		},
		{
			"bufferView":0,
			"byteOffset":2160,
			"componentType":5125,
			"count":516,
			"max":[
				167
			],
			"min":[
				0
			],
			"type":"SCALAR"
		},
		{
			"bufferView":1,
			"byteOffset":2112,
			"componentType":5126,
			"count":168,
			"max":[
				16.000000,
				49.000000,
				16.000000
			],
			"min":[
				-16.000000,
				25.000000,
				-16.000000
			],
			"type":"VEC3"
		},
		{
			"bufferView":2,
			"byteOffset":2112,
			"componentType":5126,
			"count":168,
			"max":[
				1.000000,
				0.000000,
				1.000000
			],
			"min":[
				-1.000000,
				0.000000,
				-1.000000
			],
			"type":"VEC3"
		},
		{
			"bufferView":0,
			"byteOffset":4224,
			"componentType":5125,
			"count":72,
			"max":[
				25
			],
			"min":[
				0
			],
			"type":"SCALAR"
		},
		{
			"bufferView":1,
			"byteOffset":4128,
			"componentType":5126,
			"count":26,
			"max":[
				-39.496834,
				13.000000,
				29.000000
			],
			"min":[
				-49.000000,
				0.000000,
				-29.000000
			],
			"type":"VEC3"
		},
		{
			"bufferView":2,
			"byteOffset":4128,
			"componentType":5126,
			"count":26,
			"max":[
				-0.806058,
				0.000000,
				0.591837
			],
			"min":[
				-1.000000,
				0.000000,
				-0.591837
			],
			"type":"VEC3"
		},
		{
			"bufferView":0,
			"byteOffset":4512,
			"componentType":5125,
			"count":72,
			"max":[
				25
			],
			"min":[
				0
			],
			"type":"SCALAR"
		},
		{
			"bufferView":1,
			"byteOffset":4440,
			"componentType":5126,
			"count":26,
			"max":[
				49.000000,
				13.000000,
				29.000000
			],
			"min":[
				39.496834,
				0.000000,
				-29.000000
			],
			"type":"VEC3"
		},
		{
			"bufferView":2,
			"byteOffset":4440,
			"componentType":5126,
			"count":26,
			"max":[
				1.000000,
				0.000000,
				0.591837
			],
			"min":[
				0.806058,
				0.000000,
				-0.591837
			],
			"type":"VEC3"
		},
		{
			"bufferView":0,
			"byteOffset":4800,
			"componentType":5125,
			"count":162,
			"max":[
				53
			],
			"min":[
				0
			],
			"type":"SCALAR"
		},
		{
			"bufferView":1,
			"byteOffset":4752,
			"componentType":5126,
			"count":54,
			"max":[
				10.981389,
				25.000000,
				11.000000
			],
			"min":[
				-10.981389,
				5.000000,
				-10.925622
			],
			"type":"VEC3"
		},
		{
			"bufferView":2,
			"byteOffset":4752,
			"componentType":5126,
			"count":54,
			"max":[
				0.998308,
				0.000000,
				0.993238
			],
			"min":[
				-0.998308,
				0.000000,
				-1.000000
			],
			"type":"VEC3"
		},
		{
			"bufferView":0,
			"byteOffset":5448,
			"componentType":5125,
			"count":144,
			"max":[
				47
			],
			"min":[
				0
			],
			"type":"SCALAR"
		},
		{
			"bufferView":1,
			"byteOffset":5400,
			"componentType":5126,
			"count":48,
			"max":[
				-28.000000,
				13.000000,
				6.000000
			],
			"min":[
				-40.000000,
				0.000000,
				-6.000000
			],
			"type":"VEC3"
		},
		{
			"bufferView":2,
			"byteOffset":5400,
			"componentType":5126,
			"count":48,
			"max":[
				1.000000,
				0.000000,
				1.000000
			],
			"min":[
				-1.000000,
				0.000000,
				-1.000000
			],
			"type":"VEC3"
		},
		{
			"bufferView":0,
			"byteOffset":6024,
			"componentType":5125,
			"count":144,
			"max":[
				47
			],
			"min":[
				0
			],
			"type":"SCALAR"
		},
		{
			"bufferView":1,
			"byteOffset":5976,
			"componentType":5126,
			"count":48,
			"max":[
				40.000000,
				13.000000,
				6.000000
			],
			"min":[
				28.000000,
				0.000000,
				-6.000000
			],
			"type":"VEC3"
		},
		{
			"bufferView":2,
			"byteOffset":5976,
			"componentType":5126,
			"count":48,
			"max":[
				1.000000,
				0.000000,
				1.000000
			],
			"min":[
				-1.000000,
				0.000000,
				-1.000000
			],
			"type":"VEC3"
		},
		{
			"bufferView":0,
			"byteOffset":6600,
			"componentType":5125,
			"count":300,
			"max":[
				99
			],
			"min":[
				0
			],
			"type":"SCALAR"
		},
		{
			"bufferView":1,
			"byteOffset":6552,
			"componentType":5126,
			"count":100,
			"max":[
				6.000000,
				42.000000,
				-14.832397
			],
			"min":[
				-6.000000,
				30.000000,
				-23.000000
			],
			"type":"VEC3"
		},
		{
			"bufferView":2,
			"byteOffset":6552,
			"componentType":5126,
			"count":100,
			"max":[
				1.000000,
				1.000000,
				0.000000
			],
			"min":[
				-1.000000,
				-1.000000,
				0.000000
			],
			"type":"VEC3"
		},
		{
			"bufferView":0,
			"byteOffset":7800,
			"componentType":5125,
			"count":300,
			"max":[
				99
			],
			"min":[
				0
			],
			"type":"SCALAR"
		},
		{
			"bufferView":1,
			"byteOffset":7752,
			"componentType":5126,
			"count":100,
			"max":[
				6.000000,
				42.000000,
				23.000000
			],
			"min":[
				-6.000000,
				30.000000,
				14.832397
			],
			"type":"VEC3"
		},
		{
			"bufferView":2,
			"byteOffset":7752,
			"componentType":5126,
			"count":100,
			"max":[
				1.000000,
				1.000000,
				0.000000
			],
			"min":[
				-1.000000,
				-1.000000,
				0.000000
			],
			"type":"VEC3"
		},
		{
			"bufferView":0,
			"byteOffset":9000,
			"componentType":5125,
			"count":117,
			"max":[
				38
			],
			"min":[
				0
			],
			"type":"SCALAR"
		},
		{
			"bufferView":1,
			"byteOffset":8952,
			"componentType":5126,
			"count":39,
			"max":[
				49.000000,
				0.000000,
				29.000000
			],
			"min":[
				20.000000,
				0.000000,
				-29.000000
			],
			"type":"VEC3"
		},
		{
			"bufferView":0,
			"byteOffset":9468,
			"componentType":5125,
			"count":354,
			"max":[
				113
			],
			"min":[
				0
			],
			"type":"SCALAR"
		},
		{
			"bufferView":1,
			"byteOffset":9420,
			"componentType":5126,
			"count":114,
			"max":[
				49.000000,
				13.000000,
				29.000000
			],
			"min":[
				-49.000000,
				13.000000,
				-29.000000
			],
			"type":"VEC3"
		},
		{
			"bufferView":0,
			"byteOffset":10884,
			"componentType":5125,
			"count":117,
			"max":[
				38
			],
			"min":[
				0
			],
			"type":"SCALAR"
		},
		{
			"bufferView":1,
			"byteOffset":10788,
			"componentType":5126,
			"count":39,
			"max":[
				-20.000000,
				0.000000,
				29.000000
			],
			"min":[
				-49.000000,
				0.000000,
				-29.000000
			],
			"type":"VEC3"
		},
		{
			"bufferView":0,
			"byteOffset":11352,
			"componentType":5125,
			"count":18,
			"max":[
				7
			],
			"min":[
				0
			],
			"type":"SCALAR"
		},
		{
			"bufferView":1,
			"byteOffset":11256,
			"componentType":5126,
			"count":8,
			"max":[
				39.496834,
				13.000000,
				-29.000000
			],
			"min":[
				-39.496834,
				-0.000000,
				-29.000000
			],
			"type":"VEC3"
		},
		{
			"bufferView":0,
			"byteOffset":11424,
			"componentType":5125,
			"count":18,
			"max":[
				7
			],
			"min":[
				0
			],
			"type":"SCALAR"
		},
		{
			"bufferView":1,
			"byteOffset":11352,
			"componentType":5126,
			"count":8,
			"max":[
				39.496834,
				13.000000,
				29.000000
			],
			"min":[
				-39.496834,
				-0.000000,
				29.000000
			],
			"type":"VEC3"
		},
		{
			"bufferView":0,
			"byteOffset":11496,
			"componentType":5125,
			"count":216,
			"max":[
				71
			],
			"min":[
				0
			],
			"type":"SCALAR"
		},
		{
			"bufferView":1,
			"byteOffset":11448,
			"componentType":5126,
			"count":72,
			"max":[
				22.981348,
				49.000000,
				23.000000
			],
			"min":[
				-22.981348,
				49.000000,
				-23.000000
			],
			"type":"VEC3"
		},
		{
			"bufferView":0,
			"byteOffset":12360,
			"componentType":5125,
			"count":177,
			"max":[
				58
			],
			"min":[
				0
			],
			"type":"SCALAR"
		},
		{
			"bufferView":1,
			"byteOffset":12312,
			"componentType":5126,
			"count":59,
			"max":[
				16.000000,
				25.000000,
				16.000000
			],
			"min":[
				-16.000000,
				25.000000,
				-16.000000
			],
			"type":"VEC3"
		},
		{
			"bufferView":0,
			"byteOffset":13068,
			"componentType":5125,
			"count":93,
			"max":[
				30
			],
			"min":[
				0
			],
			"type":"SCALAR"
		},
		{
			"bufferView":1,
			"byteOffset":13020,
			"componentType":5126,
			"count":31,
			"max":[
				20.000000,
				5.000000,
				29.000000
			],
			"min":[
				-20.000000,
				5.000000,
				-29.000000
			],
			"type":"VEC3"
		},
		{
			"bufferView":0,
			"byteOffset":13440,
			"componentType":5125,
			"count":6,
			"max":[
				3
			],
			"min":[
				0
			],
			"type":"SCALAR"
		},
		{
			"bufferView":1,
			"byteOffset":13392,
			"componentType":5126,
			"count":4,
			"max":[
				20.000000,
				5.000000,
				29.000000
			],
			"min":[
				20.000000,
				0.000000,
				-29.000000
			],
			"type":"VEC3"
		},
		{
			"bufferView":0,
			"byteOffset":13464,
			"componentType":5125,
			"count":6,
			"max":[
				3
			],
			"min":[
				0
			],
			"type":"SCALAR"
		},
		{
			"bufferView":1,
			"byteOffset":13440,
			"componentType":5126,
			"count":4,
			"max":[
				-20.000000,
				5.000000,
				29.000000
			],
			"min":[
				-20.000000,
				-0.000000,
				-29.000000
			],
			"type":"VEC3"
		}

	],
	"buffers":[
		{
			"uri":"data:application/octet-stream;base64,",
			"byteLength":35928
		}
	],
	"bufferViews":[
		{
			"buffer":0,
			"byteOffset":0,
			"target":34963,
			"byteLength":13488
		},
		{
			"buffer":0,
			"byteOffset":13488,
			"byteStride":12,
			"target":34962,
			"byteLength":13488
		},
		{
			"buffer":0,
			"byteOffset":26976,
			"byteStride":12,
			"target":34962,
			"byteLength":8952
		}
	],
	"materials":[
		{
			"pbrMetallicRoughness":{
				"baseColorFactor":[
					0.792157,
					0.819608,
					0.933333,
					1.000000
				],
				"roughnessFactor":0.500000,
				"metallicFactor":0.250000
			},
			"doubleSided":true,
			"name":""
		}
	],
	"meshes":[
		{
		"primitives":[
			{
			"indices":0,
			"material":0,
			"mode":4,
				"attributes":{
					"POSITION":1,
					"NORMAL":2
				}
			},
			{
			"indices":3,
			"material":0,
			"mode":4,
				"attributes":{
					"POSITION":4,
					"NORMAL":5
				}
			},
			{
			"indices":6,
			"material":0,
			"mode":4,
				"attributes":{
					"POSITION":7,
					"NORMAL":8
				}
			},
			{
			"indices":9,
			"material":0,
			"mode":4,
				"attributes":{
					"POSITION":10,
					"NORMAL":11
				}
			},
			{
			"indices":12,
			"material":0,
			"mode":4,
				"attributes":{
					"POSITION":13,
					"NORMAL":14
				}
			},
			{
			"indices":15,
			"material":0,
			"mode":4,
				"attributes":{
					"POSITION":16,
					"NORMAL":17
				}
			},
			{
			"indices":18,
			"material":0,
			"mode":4,
				"attributes":{
					"POSITION":19,
					"NORMAL":20
				}
			},
			{
			"indices":21,
			"material":0,
			"mode":4,
				"attributes":{
					"POSITION":22,
					"NORMAL":23
				}
			},
			{
			"indices":24,
			"material":0,
			"mode":4,
				"attributes":{
					"POSITION":25,
					"NORMAL":26
				}
			},
			{
			"indices":27,
			"material":0,
			"mode":4,
				"attributes":{
					"POSITION":28
				}
			},
			{
			"indices":29,
			"material":0,
			"mode":4,
				"attributes":{
					"POSITION":30
				}
			},
			{
			"indices":31,
			"material":0,
			"mode":4,
				"attributes":{
					"POSITION":32
				}
			},
			{
			"indices":33,
			"material":0,
			"mode":4,
				"attributes":{
					"POSITION":34
				}
			},
			{
			"indices":35,
			"material":0,
			"mode":4,
				"attributes":{
					"POSITION":36
				}
			},
			{
			"indices":37,
			"material":0,
			"mode":4,
				"attributes":{
					"POSITION":38
				}
			},
			{
			"indices":39,
			"material":0,
			"mode":4,
				"attributes":{
					"POSITION":40
				}
			},
			{
			"indices":41,
			"material":0,
			"mode":4,
				"attributes":{
					"POSITION":42
				}
			},
			{
			"indices":43,
			"material":0,
			"mode":4,
				"attributes":{
					"POSITION":44
				}
			},
			{
			"indices":45,
			"material":0,
			"mode":4,
				"attributes":{
					"POSITION":46
				}
			}
		]
		}
	],
	"nodes":[
		{
			"mesh":0,
			"name":""
		}
	],
	"scenes":[
		{
			"nodes":[
				0
			],
			"name":""
		}
	],
	"scene":0
}
