{
	"asset":{
		"copyright":"2022 (c) PISX",
		"generator":"Solidworks to GLTF",
		"version":"2.0"
	},
	"accessors":[
		{
			"bufferView":0,
			"byteOffset":0,
			"componentType":5125,
			"count":438,
			"max":[
				143
			],
			"min":[
				0
			],
			"type":"SCALAR"
		},
		{
			"bufferView":1,
			"byteOffset":0,
			"componentType":5126,
			"count":144,
			"max":[
				16.941936,
				46.000000,
				17.000000
			],
			"min":[
				-16.941936,
				6.000000,
				-17.000000
			],
			"type":"VEC3"
		},
		{
			"bufferView":2,
			"byteOffset":0,
			"componentType":5126,
			"count":144,
			"max":[
				0.996584,
				0.000000,
				1.000000
			],
			"min":[
				-0.996584,
				0.000000,
				-1.000000
			],
			"type":"VEC3"
		},
		{
			"bufferView":0,
			"byteOffset":1752,
			"componentType":5125,
			"count":360,
			"max":[
				119
			],
			"min":[
				0
			],
			"type":"SCALAR"
		},
		{
			"bufferView":1,
			"byteOffset":1728,
			"componentType":5126,
			"count":120,
			"max":[
				12.999334,
				46.000000,
				10.246951
			],
			"min":[
				-12.999334,
				20.000000,
				-12.999999
			],
			"type":"VEC3"
		},
		{
			"bufferView":2,
			"byteOffset":1728,
			"componentType":5126,
			"count":120,
			"max":[
				0.999949,
				0.000000,
				1.000000
			],
			"min":[
				-0.999949,
				-0.000000,
				-0.788227
			],
			"type":"VEC3"
		},
		{
			"bufferView":0,
			"byteOffset":3192,
			"componentType":5125,
			"count":36,
			"max":[
				13
			],
			"min":[
				0
			],
			"type":"SCALAR"
		},
		{
			"bufferView":1,
			"byteOffset":3168,
			"componentType":5126,
			"count":14,
			"max":[
				-27.221315,
				14.000000,
				22.000000
			],
			"min":[
				-34.292858,
				0.000000,
				7.000000
			],
			"type":"VEC3"
		},
		{
			"bufferView":2,
			"byteOffset":3168,
			"componentType":5126,
			"count":14,
			"max":[
				-0.777752,
				0.000000,
				0.628571
			],
			"min":[
				-0.979796,
				0.000000,
				0.200000
			],
			"type":"VEC3"
		},
		{
			"bufferView":0,
			"byteOffset":3336,
			"componentType":5125,
			"count":36,
			"max":[
				13
			],
			"min":[
				0
			],
			"type":"SCALAR"
		},
		{
			"bufferView":1,
			"byteOffset":3336,
			"componentType":5126,
			"count":14,
			"max":[
				34.292858,
				14.000000,
				-7.000000
			],
			"min":[
				27.221315,
				0.000000,
				-22.000000
			],
			"type":"VEC3"
		},
		{
			"bufferView":2,
			"byteOffset":3336,
			"componentType":5126,
			"count":14,
			"max":[
				0.979796,
				0.000000,
				-0.200000
			],
			"min":[
				0.777752,
				0.000000,
				-0.628571
			],
			"type":"VEC3"
		},
		{
			"bufferView":0,
			"byteOffset":3480,
			"componentType":5125,
			"count":36,
			"max":[
				13
			],
			"min":[
				0
			],
			"type":"SCALAR"
		},
		{
			"bufferView":1,
			"byteOffset":3504,
			"componentType":5126,
			"count":14,
			"max":[
				-27.221315,
				14.000000,
				-7.000000
			],
			"min":[
				-34.292858,
				0.000000,
				-22.000000
			],
			"type":"VEC3"
		},
		{
			"bufferView":2,
			"byteOffset":3504,
			"componentType":5126,
			"count":14,
			"max":[
				-0.777752,
				0.000000,
				-0.200000
			],
			"min":[
				-0.979796,
				0.000000,
				-0.628571
			],
			"type":"VEC3"
		},
		{
			"bufferView":0,
			"byteOffset":3624,
			"componentType":5125,
			"count":36,
			"max":[
				13
			],
			"min":[
				0
			],
			"type":"SCALAR"
		},
		{
			"bufferView":1,
			"byteOffset":3672,
			"componentType":5126,
			"count":14,
			"max":[
				34.292858,
				14.000000,
				22.000000
			],
			"min":[
				27.221315,
				0.000000,
				7.000000
			],
			"type":"VEC3"
		},
		{
			"bufferView":2,
			"byteOffset":3672,
			"componentType":5126,
			"count":14,
			"max":[
				0.979796,
				0.000000,
				0.628571
			],
			"min":[
				0.777752,
				0.000000,
				0.200000
			],
			"type":"VEC3"
		},
		{
			"bufferView":0,
			"byteOffset":3768,
			"componentType":5125,
			"count":78,
			"max":[
				27
			],
			"min":[
				0
			],
			"type":"SCALAR"
		},
		{
			"bufferView":1,
			"byteOffset":3840,
			"componentType":5126,
			"count":28,
			"max":[
				30.000000,
				14.000000,
				7.000000
			],
			"min":[
				23.051039,
				0.000000,
				-7.000000
			],
			"type":"VEC3"
		},
		{
			"bufferView":2,
			"byteOffset":3840,
			"componentType":5126,
			"count":28,
			"max":[
				0.992709,
				0.000000,
				1.000000
			],
			"min":[
				-0.000000,
				0.000000,
				-1.000000
			],
			"type":"VEC3"
		},
		{
			"bufferView":0,
			"byteOffset":4080,
			"componentType":5125,
			"count":78,
			"max":[
				27
			],
			"min":[
				0
			],
			"type":"SCALAR"
		},
		{
			"bufferView":1,
			"byteOffset":4176,
			"componentType":5126,
			"count":28,
			"max":[
				-23.051039,
				14.000000,
				7.000000
			],
			"min":[
				-30.000000,
				0.000000,
				-7.000000
			],
			"type":"VEC3"
		},
		{
			"bufferView":2,
			"byteOffset":4176,
			"componentType":5126,
			"count":28,
			"max":[
				0.000000,
				0.000000,
				1.000000
			],
			"min":[
				-0.992709,
				0.000000,
				-1.000000
			],
			"type":"VEC3"
		},
		{
			"bufferView":0,
			"byteOffset":4392,
			"componentType":5125,
			"count":144,
			"max":[
				47
			],
			"min":[
				0
			],
			"type":"SCALAR"
		},
		{
			"bufferView":1,
			"byteOffset":4512,
			"componentType":5126,
			"count":48,
			"max":[
				6.000000,
				20.000000,
				6.000000
			],
			"min":[
				-6.000000,
				0.000000,
				-6.000000
			],
			"type":"VEC3"
		},
		{
			"bufferView":2,
			"byteOffset":4512,
			"componentType":5126,
			"count":48,
			"max":[
				1.000000,
				0.000000,
				1.000000
			],
			"min":[
				-1.000000,
				0.000000,
				-1.000000
			],
			"type":"VEC3"
		},
		{
			"bufferView":0,
			"byteOffset":4968,
			"componentType":5125,
			"count":360,
			"max":[
				119
			],
			"min":[
				0
			],
			"type":"SCALAR"
		},
		{
			"bufferView":1,
			"byteOffset":5088,
			"componentType":5126,
			"count":120,
			"max":[
				8.000000,
				41.000000,
				-10.246951
			],
			"min":[
				-8.000000,
				25.000000,
				-17.000000
			],
			"type":"VEC3"
		},
		{
			"bufferView":2,
			"byteOffset":5088,
			"componentType":5126,
			"count":120,
			"max":[
				1.000000,
				1.000000,
				0.000000
			],
			"min":[
				-1.000000,
				-1.000000,
				0.000000
			],
			"type":"VEC3"
		},
		{
			"bufferView":0,
			"byteOffset":6408,
			"componentType":5125,
			"count":183,
			"max":[
				62
			],
			"min":[
				0
			],
			"type":"SCALAR"
		},
		{
			"bufferView":1,
			"byteOffset":6528,
			"componentType":5126,
			"count":63,
			"max":[
				16.941936,
				46.000000,
				15.000000
			],
			"min":[
				-16.941936,
				46.000000,
				-17.000000
			],
			"type":"VEC3"
		},
		{
			"bufferView":0,
			"byteOffset":7140,
			"componentType":5125,
			"count":6,
			"max":[
				3
			],
			"min":[
				0
			],
			"type":"SCALAR"
		},
		{
			"bufferView":1,
			"byteOffset":7284,
			"componentType":5126,
			"count":4,
			"max":[
				-10.954451,
				14.000000,
				-13.000000
			],
			"min":[
				-32.496155,
				6.000000,
				-13.000000
			],
			"type":"VEC3"
		},
		{
			"bufferView":0,
			"byteOffset":7164,
			"componentType":5125,
			"count":6,
			"max":[
				3
			],
			"min":[
				0
			],
			"type":"SCALAR"
		},
		{
			"bufferView":1,
			"byteOffset":7332,
			"componentType":5126,
			"count":4,
			"max":[
				32.496155,
				14.000000,
				-13.000000
			],
			"min":[
				10.954451,
				6.000000,
				-13.000000
			],
			"type":"VEC3"
		},
		{
			"bufferView":0,
			"byteOffset":7188,
			"componentType":5125,
			"count":6,
			"max":[
				3
			],
			"min":[
				0
			],
			"type":"SCALAR"
		},
		{
			"bufferView":1,
			"byteOffset":7380,
			"componentType":5126,
			"count":4,
			"max":[
				32.496155,
				14.000000,
				13.000000
			],
			"min":[
				10.954451,
				6.000000,
				13.000000
			],
			"type":"VEC3"
		},
		{
			"bufferView":0,
			"byteOffset":7212,
			"componentType":5125,
			"count":6,
			"max":[
				3
			],
			"min":[
				0
			],
			"type":"SCALAR"
		},
		{
			"bufferView":1,
			"byteOffset":7428,
			"componentType":5126,
			"count":4,
			"max":[
				-10.954451,
				14.000000,
				13.000000
			],
			"min":[
				-32.496155,
				6.000000,
				13.000000
			],
			"type":"VEC3"
		},
		{
			"bufferView":0,
			"byteOffset":7236,
			"componentType":5125,
			"count":90,
			"max":[
				31
			],
			"min":[
				0
			],
			"type":"SCALAR"
		},
		{
			"bufferView":1,
			"byteOffset":7476,
			"componentType":5126,
			"count":32,
			"max":[
				-10.954451,
				14.000000,
				13.000000
			],
			"min":[
				-34.292858,
				14.000000,
				-13.000000
			],
			"type":"VEC3"
		},
		{
			"bufferView":0,
			"byteOffset":7596,
			"componentType":5125,
			"count":57,
			"max":[
				20
			],
			"min":[
				0
			],
			"type":"SCALAR"
		},
		{
			"bufferView":1,
			"byteOffset":7860,
			"componentType":5126,
			"count":21,
			"max":[
				32.496155,
				6.000000,
				22.000000
			],
			"min":[
				-32.496155,
				6.000000,
				13.000000
			],
			"type":"VEC3"
		},
		{
			"bufferView":0,
			"byteOffset":7824,
			"componentType":5125,
			"count":6,
			"max":[
				3
			],
			"min":[
				0
			],
			"type":"SCALAR"
		},
		{
			"bufferView":1,
			"byteOffset":8112,
			"componentType":5126,
			"count":4,
			"max":[
				27.221315,
				6.000000,
				22.000000
			],
			"min":[
				-27.221315,
				0.000000,
				22.000000
			],
			"type":"VEC3"
		},
		{
			"bufferView":0,
			"byteOffset":7848,
			"componentType":5125,
			"count":6,
			"max":[
				3
			],
			"min":[
				0
			],
			"type":"SCALAR"
		},
		{
			"bufferView":1,
			"byteOffset":8160,
			"componentType":5126,
			"count":4,
			"max":[
				27.221315,
				6.000000,
				-22.000000
			],
			"min":[
				-27.221315,
				0.000000,
				-22.000000
			],
			"type":"VEC3"
		},
		{
			"bufferView":0,
			"byteOffset":7872,
			"componentType":5125,
			"count":57,
			"max":[
				20
			],
			"min":[
				0
			],
			"type":"SCALAR"
		},
		{
			"bufferView":1,
			"byteOffset":8208,
			"componentType":5126,
			"count":21,
			"max":[
				32.496155,
				6.000000,
				-13.000000
			],
			"min":[
				-32.496155,
				6.000000,
				-22.000000
			],
			"type":"VEC3"
		},
		{
			"bufferView":0,
			"byteOffset":8100,
			"componentType":5125,
			"count":228,
			"max":[
				75
			],
			"min":[
				0
			],
			"type":"SCALAR"
		},
		{
			"bufferView":1,
			"byteOffset":8460,
			"componentType":5126,
			"count":76,
			"max":[
				34.292858,
				0.000000,
				22.000000
			],
			"min":[
				-34.292858,
				0.000000,
				-22.000000
			],
			"type":"VEC3"
		},
		{
			"bufferView":0,
			"byteOffset":9012,
			"componentType":5125,
			"count":90,
			"max":[
				31
			],
			"min":[
				0
			],
			"type":"SCALAR"
		},
		{
			"bufferView":1,
			"byteOffset":9372,
			"componentType":5126,
			"count":32,
			"max":[
				34.292858,
				14.000000,
				13.000000
			],
			"min":[
				10.954451,
				14.000000,
				-13.000000
			],
			"type":"VEC3"
		},
		{
			"bufferView":0,
			"byteOffset":9372,
			"componentType":5125,
			"count":6,
			"max":[
				3
			],
			"min":[
				0
			],
			"type":"SCALAR"
		},
		{
			"bufferView":1,
			"byteOffset":9756,
			"componentType":5126,
			"count":4,
			"max":[
				34.292858,
				14.000000,
				-7.000000
			],
			"min":[
				30.000000,
				0.000000,
				-7.000000
			],
			"type":"VEC3"
		},
		{
			"bufferView":0,
			"byteOffset":9396,
			"componentType":5125,
			"count":6,
			"max":[
				3
			],
			"min":[
				0
			],
			"type":"SCALAR"
		},
		{
			"bufferView":1,
			"byteOffset":9804,
			"componentType":5126,
			"count":4,
			"max":[
				34.292858,
				14.000000,
				7.000000
			],
			"min":[
				30.000000,
				0.000000,
				7.000000
			],
			"type":"VEC3"
		},
		{
			"bufferView":0,
			"byteOffset":9420,
			"componentType":5125,
			"count":6,
			"max":[
				3
			],
			"min":[
				0
			],
			"type":"SCALAR"
		},
		{
			"bufferView":1,
			"byteOffset":9852,
			"componentType":5126,
			"count":4,
			"max":[
				-30.000000,
				14.000000,
				7.000000
			],
			"min":[
				-34.292858,
				0.000000,
				7.000000
			],
			"type":"VEC3"
		},
		{
			"bufferView":0,
			"byteOffset":9444,
			"componentType":5125,
			"count":6,
			"max":[
				3
			],
			"min":[
				0
			],
			"type":"SCALAR"
		},
		{
			"bufferView":1,
			"byteOffset":9900,
			"componentType":5126,
			"count":4,
			"max":[
				-30.000000,
				14.000000,
				-7.000000
			],
			"min":[
				-34.292858,
				0.000000,
				-7.000000
			],
			"type":"VEC3"
		},
		{
			"bufferView":0,
			"byteOffset":9468,
			"componentType":5125,
			"count":177,
			"max":[
				58
			],
			"min":[
				0
			],
			"type":"SCALAR"
		},
		{
			"bufferView":1,
			"byteOffset":9948,
			"componentType":5126,
			"count":59,
			"max":[
				12.999334,
				20.000000,
				17.000000
			],
			"min":[
				-12.999334,
				20.000000,
				-12.945256
			],
			"type":"VEC3"
		},
		{
			"bufferView":0,
			"byteOffset":10176,
			"componentType":5125,
			"count":6,
			"max":[
				3
			],
			"min":[
				0
			],
			"type":"SCALAR"
		},
		{
			"bufferView":1,
			"byteOffset":10656,
			"componentType":5126,
			"count":4,
			"max":[
				-8.000000,
				46.000000,
				15.000000
			],
			"min":[
				-8.000000,
				20.000000,
				10.246951
			],
			"type":"VEC3"
		},
		{
			"bufferView":0,
			"byteOffset":10200,
			"componentType":5125,
			"count":6,
			"max":[
				3
			],
			"min":[
				0
			],
			"type":"SCALAR"
		},
		{
			"bufferView":1,
			"byteOffset":10704,
			"componentType":5126,
			"count":4,
			"max":[
				8.000000,
				46.000000,
				15.000000
			],
			"min":[
				8.000000,
				20.000000,
				10.246951
			],
			"type":"VEC3"
		}

	],
	"buffers":[
		{
			"uri":"data:application/octet-stream;base64,",
			"byteLength":27504
		}
	],
	"bufferViews":[
		{
			"buffer":0,
			"byteOffset":0,
			"target":34963,
			"byteLength":10224
		},
		{
			"buffer":0,
			"byteOffset":10224,
			"byteStride":12,
			"target":34962,
			"byteLength":10752
		},
		{
			"buffer":0,
			"byteOffset":20976,
			"byteStride":12,
			"target":34962,
			"byteLength":6528
		}
	],
	"materials":[
		{
			"pbrMetallicRoughness":{
				"baseColorFactor":[
					0.792157,
					0.819608,
					0.933333,
					1.000000
				],
				"roughnessFactor":0.500000,
				"metallicFactor":0.250000
			},
			"doubleSided":true,
			"name":""
		}
	],
	"meshes":[
		{
		"primitives":[
			{
			"indices":0,
			"material":0,
			"mode":4,
				"attributes":{
					"POSITION":1,
					"NORMAL":2
				}
			},
			{
			"indices":3,
			"material":0,
			"mode":4,
				"attributes":{
					"POSITION":4,
					"NORMAL":5
				}
			},
			{
			"indices":6,
			"material":0,
			"mode":4,
				"attributes":{
					"POSITION":7,
					"NORMAL":8
				}
			},
			{
			"indices":9,
			"material":0,
			"mode":4,
				"attributes":{
					"POSITION":10,
					"NORMAL":11
				}
			},
			{
			"indices":12,
			"material":0,
			"mode":4,
				"attributes":{
					"POSITION":13,
					"NORMAL":14
				}
			},
			{
			"indices":15,
			"material":0,
			"mode":4,
				"attributes":{
					"POSITION":16,
					"NORMAL":17
				}
			},
			{
			"indices":18,
			"material":0,
			"mode":4,
				"attributes":{
					"POSITION":19,
					"NORMAL":20
				}
			},
			{
			"indices":21,
			"material":0,
			"mode":4,
				"attributes":{
					"POSITION":22,
					"NORMAL":23
				}
			},
			{
			"indices":24,
			"material":0,
			"mode":4,
				"attributes":{
					"POSITION":25,
					"NORMAL":26
				}
			},
			{
			"indices":27,
			"material":0,
			"mode":4,
				"attributes":{
					"POSITION":28,
					"NORMAL":29
				}
			},
			{
			"indices":30,
			"material":0,
			"mode":4,
				"attributes":{
					"POSITION":31
				}
			},
			{
			"indices":32,
			"material":0,
			"mode":4,
				"attributes":{
					"POSITION":33
				}
			},
			{
			"indices":34,
			"material":0,
			"mode":4,
				"attributes":{
					"POSITION":35
				}
			},
			{
			"indices":36,
			"material":0,
			"mode":4,
				"attributes":{
					"POSITION":37
				}
			},
			{
			"indices":38,
			"material":0,
			"mode":4,
				"attributes":{
					"POSITION":39
				}
			},
			{
			"indices":40,
			"material":0,
			"mode":4,
				"attributes":{
					"POSITION":41
				}
			},
			{
			"indices":42,
			"material":0,
			"mode":4,
				"attributes":{
					"POSITION":43
				}
			},
			{
			"indices":44,
			"material":0,
			"mode":4,
				"attributes":{
					"POSITION":45
				}
			},
			{
			"indices":46,
			"material":0,
			"mode":4,
				"attributes":{
					"POSITION":47
				}
			},
			{
			"indices":48,
			"material":0,
			"mode":4,
				"attributes":{
					"POSITION":49
				}
			},
			{
			"indices":50,
			"material":0,
			"mode":4,
				"attributes":{
					"POSITION":51
				}
			},
			{
			"indices":52,
			"material":0,
			"mode":4,
				"attributes":{
					"POSITION":53
				}
			},
			{
			"indices":54,
			"material":0,
			"mode":4,
				"attributes":{
					"POSITION":55
				}
			},
			{
			"indices":56,
			"material":0,
			"mode":4,
				"attributes":{
					"POSITION":57
				}
			},
			{
			"indices":58,
			"material":0,
			"mode":4,
				"attributes":{
					"POSITION":59
				}
			},
			{
			"indices":60,
			"material":0,
			"mode":4,
				"attributes":{
					"POSITION":61
				}
			},
			{
			"indices":62,
			"material":0,
			"mode":4,
				"attributes":{
					"POSITION":63
				}
			},
			{
			"indices":64,
			"material":0,
			"mode":4,
				"attributes":{
					"POSITION":65
				}
			},
			{
			"indices":66,
			"material":0,
			"mode":4,
				"attributes":{
					"POSITION":67
				}
			}
		]
		}
	],
	"nodes":[
		{
			"mesh":0,
			"name":""
		}
	],
	"scenes":[
		{
			"nodes":[
				0
			],
			"name":""
		}
	],
	"scene":0
}
