{
	"asset":{
		"copyright":"2022 (c) PISX",
		"generator":"Solidworks to GLTF",
		"version":"2.0"
	},
	"accessors":[
		{
			"bufferView":0,
			"byteOffset":0,
			"componentType":5125,
			"count":144,
			"max":[
				47
			],
			"min":[
				0
			],
			"type":"SCALAR"
		},
		{
			"bufferView":1,
			"byteOffset":0,
			"componentType":5126,
			"count":48,
			"max":[
				-6.000000,
				-4.000000,
				6.000000
			],
			"min":[
				-11.000000,
				-10.000000,
				0.000000
			],
			"type":"VEC3"
		},
		{
			"bufferView":2,
			"byteOffset":0,
			"componentType":5126,
			"count":48,
			"max":[
				0.000000,
				1.000000,
				1.000000
			],
			"min":[
				0.000000,
				-1.000000,
				-1.000000
			],
			"type":"VEC3"
		},
		{
			"bufferView":0,
			"byteOffset":576,
			"componentType":5125,
			"count":144,
			"max":[
				47
			],
			"min":[
				0
			],
			"type":"SCALAR"
		},
		{
			"bufferView":1,
			"byteOffset":576,
			"componentType":5126,
			"count":48,
			"max":[
				-6.000000,
				-4.000000,
				-5.000000
			],
			"min":[
				-11.000000,
				-10.000000,
				-11.000000
			],
			"type":"VEC3"
		},
		{
			"bufferView":2,
			"byteOffset":576,
			"componentType":5126,
			"count":48,
			"max":[
				0.000000,
				1.000000,
				1.000000
			],
			"min":[
				0.000000,
				-1.000000,
				-1.000000
			],
			"type":"VEC3"
		},
		{
			"bufferView":0,
			"byteOffset":1152,
			"componentType":5125,
			"count":48,
			"max":[
				17
			],
			"min":[
				0
			],
			"type":"SCALAR"
		},
		{
			"bufferView":1,
			"byteOffset":1152,
			"componentType":5126,
			"count":18,
			"max":[
				3.000000,
				23.000000,
				-11.000000
			],
			"min":[
				-3.000000,
				17.000000,
				-16.000000
			],
			"type":"VEC3"
		},
		{
			"bufferView":2,
			"byteOffset":1152,
			"componentType":5126,
			"count":18,
			"max":[
				0.000000,
				1.000000,
				0.000000
			],
			"min":[
				-1.000000,
				-0.000000,
				0.000000
			],
			"type":"VEC3"
		},
		{
			"bufferView":0,
			"byteOffset":1344,
			"componentType":5125,
			"count":144,
			"max":[
				47
			],
			"min":[
				0
			],
			"type":"SCALAR"
		},
		{
			"bufferView":1,
			"byteOffset":1368,
			"componentType":5126,
			"count":48,
			"max":[
				6.000000,
				20.000000,
				-11.000000
			],
			"min":[
				-0.000000,
				14.000000,
				-16.000000
			],
			"type":"VEC3"
		},
		{
			"bufferView":2,
			"byteOffset":1368,
			"componentType":5126,
			"count":48,
			"max":[
				1.000000,
				1.000000,
				0.000000
			],
			"min":[
				-1.000000,
				-1.000000,
				0.000000
			],
			"type":"VEC3"
		},
		{
			"bufferView":0,
			"byteOffset":1920,
			"componentType":5125,
			"count":120,
			"max":[
				39
			],
			"min":[
				0
			],
			"type":"SCALAR"
		},
		{
			"bufferView":1,
			"byteOffset":1944,
			"componentType":5126,
			"count":40,
			"max":[
				16.000000,
				23.000000,
				-16.000000
			],
			"min":[
				-11.000000,
				-12.000000,
				-16.000000
			],
			"type":"VEC3"
		},
		{
			"bufferView":0,
			"byteOffset":2400,
			"componentType":5125,
			"count":162,
			"max":[
				51
			],
			"min":[
				0
			],
			"type":"SCALAR"
		},
		{
			"bufferView":1,
			"byteOffset":2424,
			"componentType":5126,
			"count":52,
			"max":[
				-11.000000,
				5.000000,
				11.000000
			],
			"min":[
				-11.000000,
				-12.000000,
				-16.000000
			],
			"type":"VEC3"
		},
		{
			"bufferView":0,
			"byteOffset":3048,
			"componentType":5125,
			"count":12,
			"max":[
				5
			],
			"min":[
				0
			],
			"type":"SCALAR"
		},
		{
			"bufferView":1,
			"byteOffset":3048,
			"componentType":5126,
			"count":6,
			"max":[
				16.000000,
				5.000000,
				11.000000
			],
			"min":[
				-11.000000,
				-12.000000,
				11.000000
			],
			"type":"VEC3"
		},
		{
			"bufferView":0,
			"byteOffset":3096,
			"componentType":5125,
			"count":12,
			"max":[
				5
			],
			"min":[
				0
			],
			"type":"SCALAR"
		},
		{
			"bufferView":1,
			"byteOffset":3120,
			"componentType":5126,
			"count":6,
			"max":[
				16.000000,
				23.000000,
				11.000000
			],
			"min":[
				16.000000,
				0.000000,
				-16.000000
			],
			"type":"VEC3"
		},
		{
			"bufferView":0,
			"byteOffset":3144,
			"componentType":5125,
			"count":18,
			"max":[
				7
			],
			"min":[
				0
			],
			"type":"SCALAR"
		},
		{
			"bufferView":1,
			"byteOffset":3192,
			"componentType":5126,
			"count":8,
			"max":[
				16.000000,
				5.000000,
				11.000000
			],
			"min":[
				-11.000000,
				5.000000,
				-16.000000
			],
			"type":"VEC3"
		},
		{
			"bufferView":0,
			"byteOffset":3216,
			"componentType":5125,
			"count":6,
			"max":[
				3
			],
			"min":[
				0
			],
			"type":"SCALAR"
		},
		{
			"bufferView":1,
			"byteOffset":3288,
			"componentType":5126,
			"count":4,
			"max":[
				16.000000,
				0.000000,
				11.000000
			],
			"min":[
				-6.000000,
				0.000000,
				-16.000000
			],
			"type":"VEC3"
		},
		{
			"bufferView":0,
			"byteOffset":3240,
			"componentType":5125,
			"count":162,
			"max":[
				51
			],
			"min":[
				0
			],
			"type":"SCALAR"
		},
		{
			"bufferView":1,
			"byteOffset":3336,
			"componentType":5126,
			"count":52,
			"max":[
				-6.000000,
				0.000000,
				11.000000
			],
			"min":[
				-6.000000,
				-12.000000,
				-16.000000
			],
			"type":"VEC3"
		},
		{
			"bufferView":0,
			"byteOffset":3888,
			"componentType":5125,
			"count":6,
			"max":[
				3
			],
			"min":[
				0
			],
			"type":"SCALAR"
		},
		{
			"bufferView":1,
			"byteOffset":3960,
			"componentType":5126,
			"count":4,
			"max":[
				-6.000000,
				-12.000000,
				11.000000
			],
			"min":[
				-11.000000,
				-12.000000,
				-16.000000
			],
			"type":"VEC3"
		},
		{
			"bufferView":0,
			"byteOffset":3912,
			"componentType":5125,
			"count":9,
			"max":[
				4
			],
			"min":[
				0
			],
			"type":"SCALAR"
		},
		{
			"bufferView":1,
			"byteOffset":4008,
			"componentType":5126,
			"count":5,
			"max":[
				16.000000,
				23.000000,
				-11.000000
			],
			"min":[
				3.000000,
				23.000000,
				-16.000000
			],
			"type":"VEC3"
		},
		{
			"bufferView":0,
			"byteOffset":3948,
			"componentType":5125,
			"count":6,
			"max":[
				3
			],
			"min":[
				0
			],
			"type":"SCALAR"
		},
		{
			"bufferView":1,
			"byteOffset":4068,
			"componentType":5126,
			"count":4,
			"max":[
				-3.000000,
				17.000000,
				-11.000000
			],
			"min":[
				-3.000000,
				5.000000,
				-16.000000
			],
			"type":"VEC3"
		},
		{
			"bufferView":0,
			"byteOffset":3972,
			"componentType":5125,
			"count":108,
			"max":[
				35
			],
			"min":[
				0
			],
			"type":"SCALAR"
		},
		{
			"bufferView":1,
			"byteOffset":4116,
			"componentType":5126,
			"count":36,
			"max":[
				11.000000,
				23.000000,
				-11.000000
			],
			"min":[
				-3.000000,
				5.000000,
				-11.000000
			],
			"type":"VEC3"
		},
		{
			"bufferView":0,
			"byteOffset":4404,
			"componentType":5125,
			"count":6,
			"max":[
				3
			],
			"min":[
				0
			],
			"type":"SCALAR"
		},
		{
			"bufferView":1,
			"byteOffset":4548,
			"componentType":5126,
			"count":4,
			"max":[
				16.000000,
				23.000000,
				7.000000
			],
			"min":[
				11.000000,
				5.000000,
				-11.000000
			],
			"type":"VEC3"
		},
		{
			"bufferView":0,
			"byteOffset":4428,
			"componentType":5125,
			"count":3,
			"max":[
				2
			],
			"min":[
				0
			],
			"type":"SCALAR"
		},
		{
			"bufferView":1,
			"byteOffset":4596,
			"componentType":5126,
			"count":3,
			"max":[
				11.000000,
				23.000000,
				7.000000
			],
			"min":[
				11.000000,
				5.000000,
				-11.000000
			],
			"type":"VEC3"
		}

	],
	"buffers":[
		{
			"uri":"data:application/octet-stream;base64,",
			"byteLength":11016
		}
	],
	"bufferViews":[
		{
			"buffer":0,
			"byteOffset":0,
			"target":34963,
			"byteLength":4440
		},
		{
			"buffer":0,
			"byteOffset":4440,
			"byteStride":12,
			"target":34962,
			"byteLength":4632
		},
		{
			"buffer":0,
			"byteOffset":9072,
			"byteStride":12,
			"target":34962,
			"byteLength":1944
		}
	],
	"materials":[
		{
			"pbrMetallicRoughness":{
				"baseColorFactor":[
					0.039216,
					0.490196,
					0.709804,
					1.000000
				],
				"roughnessFactor":0.500000,
				"metallicFactor":0.250000
			},
			"doubleSided":true,
			"name":""
		},
		{
			"pbrMetallicRoughness":{
				"baseColorFactor":[
					1.000000,
					0.168627,
					0.168627,
					1.000000
				],
				"roughnessFactor":0.500000,
				"metallicFactor":0.250000
			},
			"doubleSided":true,
			"name":""
		}
	],
	"meshes":[
		{
		"primitives":[
			{
			"indices":0,
			"material":1,
			"mode":4,
				"attributes":{
					"POSITION":1,
					"NORMAL":2
				}
			},
			{
			"indices":3,
			"material":1,
			"mode":4,
				"attributes":{
					"POSITION":4,
					"NORMAL":5
				}
			},
			{
			"indices":6,
			"material":0,
			"mode":4,
				"attributes":{
					"POSITION":7,
					"NORMAL":8
				}
			},
			{
			"indices":9,
			"material":1,
			"mode":4,
				"attributes":{
					"POSITION":10,
					"NORMAL":11
				}
			},
			{
			"indices":12,
			"material":0,
			"mode":4,
				"attributes":{
					"POSITION":13
				}
			},
			{
			"indices":14,
			"material":0,
			"mode":4,
				"attributes":{
					"POSITION":15
				}
			},
			{
			"indices":16,
			"material":0,
			"mode":4,
				"attributes":{
					"POSITION":17
				}
			},
			{
			"indices":18,
			"material":0,
			"mode":4,
				"attributes":{
					"POSITION":19
				}
			},
			{
			"indices":20,
			"material":0,
			"mode":4,
				"attributes":{
					"POSITION":21
				}
			},
			{
			"indices":22,
			"material":0,
			"mode":4,
				"attributes":{
					"POSITION":23
				}
			},
			{
			"indices":24,
			"material":0,
			"mode":4,
				"attributes":{
					"POSITION":25
				}
			},
			{
			"indices":26,
			"material":0,
			"mode":4,
				"attributes":{
					"POSITION":27
				}
			},
			{
			"indices":28,
			"material":0,
			"mode":4,
				"attributes":{
					"POSITION":29
				}
			},
			{
			"indices":30,
			"material":0,
			"mode":4,
				"attributes":{
					"POSITION":31
				}
			},
			{
			"indices":32,
			"material":0,
			"mode":4,
				"attributes":{
					"POSITION":33
				}
			},
			{
			"indices":34,
			"material":0,
			"mode":4,
				"attributes":{
					"POSITION":35
				}
			},
			{
			"indices":36,
			"material":0,
			"mode":4,
				"attributes":{
					"POSITION":37
				}
			}
		]
		}
	],
	"nodes":[
		{
			"mesh":0,
			"name":""
		}
	],
	"scenes":[
		{
			"nodes":[
				0
			],
			"name":""
		}
	],
	"scene":0
}
