{
	"asset":{
		"copyright":"2022 (c) PISX",
		"generator":"Solidworks to GLTF",
		"version":"2.0"
	},
	"accessors":[
		{
			"bufferView":0,
			"byteOffset":0,
			"componentType":5125,
			"count":48,
			"max":[
				17
			],
			"min":[
				0
			],
			"type":"SCALAR"
		},
		{
			"bufferView":1,
			"byteOffset":0,
			"componentType":5126,
			"count":18,
			"max":[
				-7.000000,
				8.000000,
				12.000000
			],
			"min":[
				-12.000000,
				0.000000,
				7.000000
			],
			"type":"VEC3"
		},
		{
			"bufferView":2,
			"byteOffset":0,
			"componentType":5126,
			"count":18,
			"max":[
				0.000000,
				0.000000,
				1.000000
			],
			"min":[
				-1.000000,
				0.000000,
				-0.000000
			],
			"type":"VEC3"
		},
		{
			"bufferView":0,
			"byteOffset":192,
			"componentType":5125,
			"count":48,
			"max":[
				17
			],
			"min":[
				0
			],
			"type":"SCALAR"
		},
		{
			"bufferView":1,
			"byteOffset":216,
			"componentType":5126,
			"count":18,
			"max":[
				-7.000000,
				8.000000,
				-7.000000
			],
			"min":[
				-12.000000,
				0.000000,
				-12.000000
			],
			"type":"VEC3"
		},
		{
			"bufferView":2,
			"byteOffset":216,
			"componentType":5126,
			"count":18,
			"max":[
				0.000000,
				0.000000,
				0.000000
			],
			"min":[
				-1.000000,
				0.000000,
				-1.000000
			],
			"type":"VEC3"
		},
		{
			"bufferView":0,
			"byteOffset":384,
			"componentType":5125,
			"count":204,
			"max":[
				67
			],
			"min":[
				0
			],
			"type":"SCALAR"
		},
		{
			"bufferView":1,
			"byteOffset":432,
			"componentType":5126,
			"count":68,
			"max":[
				5.993204,
				8.000000,
				6.000000
			],
			"min":[
				-5.993204,
				0.000000,
				-6.000000
			],
			"type":"VEC3"
		},
		{
			"bufferView":2,
			"byteOffset":432,
			"componentType":5126,
			"count":68,
			"max":[
				0.998867,
				0.000000,
				1.000000
			],
			"min":[
				-0.998867,
				0.000000,
				-1.000000
			],
			"type":"VEC3"
		},
		{
			"bufferView":0,
			"byteOffset":1200,
			"componentType":5125,
			"count":114,
			"max":[
				39
			],
			"min":[
				0
			],
			"type":"SCALAR"
		},
		{
			"bufferView":1,
			"byteOffset":1248,
			"componentType":5126,
			"count":40,
			"max":[
				21.000000,
				22.000000,
				8.000000
			],
			"min":[
				13.000000,
				14.027325,
				-8.000000
			],
			"type":"VEC3"
		},
		{
			"bufferView":2,
			"byteOffset":1248,
			"componentType":5126,
			"count":40,
			"max":[
				0.000000,
				0.996584,
				1.000000
			],
			"min":[
				-0.000000,
				-0.000000,
				-1.000000
			],
			"type":"VEC3"
		},
		{
			"bufferView":0,
			"byteOffset":1656,
			"componentType":5125,
			"count":162,
			"max":[
				53
			],
			"min":[
				0
			],
			"type":"SCALAR"
		},
		{
			"bufferView":1,
			"byteOffset":1728,
			"componentType":5126,
			"count":54,
			"max":[
				13.000000,
				8.000000,
				12.000000
			],
			"min":[
				-12.000000,
				8.000000,
				-12.000000
			],
			"type":"VEC3"
		},
		{
			"bufferView":0,
			"byteOffset":2304,
			"componentType":5125,
			"count":162,
			"max":[
				53
			],
			"min":[
				0
			],
			"type":"SCALAR"
		},
		{
			"bufferView":1,
			"byteOffset":2376,
			"componentType":5126,
			"count":54,
			"max":[
				21.000000,
				0.000000,
				12.000000
			],
			"min":[
				-12.000000,
				0.000000,
				-12.000000
			],
			"type":"VEC3"
		},
		{
			"bufferView":0,
			"byteOffset":2952,
			"componentType":5125,
			"count":12,
			"max":[
				5
			],
			"min":[
				0
			],
			"type":"SCALAR"
		},
		{
			"bufferView":1,
			"byteOffset":3024,
			"componentType":5126,
			"count":6,
			"max":[
				21.000000,
				22.000000,
				12.000000
			],
			"min":[
				-7.000000,
				0.000000,
				12.000000
			],
			"type":"VEC3"
		},
		{
			"bufferView":0,
			"byteOffset":3000,
			"componentType":5125,
			"count":66,
			"max":[
				23
			],
			"min":[
				0
			],
			"type":"SCALAR"
		},
		{
			"bufferView":1,
			"byteOffset":3096,
			"componentType":5126,
			"count":24,
			"max":[
				21.000000,
				22.000000,
				12.000000
			],
			"min":[
				21.000000,
				0.000000,
				-12.000000
			],
			"type":"VEC3"
		},
		{
			"bufferView":0,
			"byteOffset":3264,
			"componentType":5125,
			"count":12,
			"max":[
				5
			],
			"min":[
				0
			],
			"type":"SCALAR"
		},
		{
			"bufferView":1,
			"byteOffset":3384,
			"componentType":5126,
			"count":6,
			"max":[
				21.000000,
				22.000000,
				-12.000000
			],
			"min":[
				-7.000000,
				0.000000,
				-12.000000
			],
			"type":"VEC3"
		},
		{
			"bufferView":0,
			"byteOffset":3312,
			"componentType":5125,
			"count":6,
			"max":[
				3
			],
			"min":[
				0
			],
			"type":"SCALAR"
		},
		{
			"bufferView":1,
			"byteOffset":3456,
			"componentType":5126,
			"count":4,
			"max":[
				-12.000000,
				8.000000,
				7.000000
			],
			"min":[
				-12.000000,
				0.000000,
				-7.000000
			],
			"type":"VEC3"
		},
		{
			"bufferView":0,
			"byteOffset":3336,
			"componentType":5125,
			"count":6,
			"max":[
				3
			],
			"min":[
				0
			],
			"type":"SCALAR"
		},
		{
			"bufferView":1,
			"byteOffset":3504,
			"componentType":5126,
			"count":4,
			"max":[
				21.000000,
				22.000000,
				12.000000
			],
			"min":[
				13.000000,
				22.000000,
				8.000000
			],
			"type":"VEC3"
		},
		{
			"bufferView":0,
			"byteOffset":3360,
			"componentType":5125,
			"count":6,
			"max":[
				3
			],
			"min":[
				0
			],
			"type":"SCALAR"
		},
		{
			"bufferView":1,
			"byteOffset":3552,
			"componentType":5126,
			"count":4,
			"max":[
				21.000000,
				22.000000,
				-8.000000
			],
			"min":[
				13.000000,
				22.000000,
				-12.000000
			],
			"type":"VEC3"
		},
		{
			"bufferView":0,
			"byteOffset":3384,
			"componentType":5125,
			"count":66,
			"max":[
				23
			],
			"min":[
				0
			],
			"type":"SCALAR"
		},
		{
			"bufferView":1,
			"byteOffset":3600,
			"componentType":5126,
			"count":24,
			"max":[
				13.000000,
				22.000000,
				12.000000
			],
			"min":[
				13.000000,
				8.000000,
				-12.000000
			],
			"type":"VEC3"
		}

	],
	"buffers":[
		{
			"uri":"data:application/octet-stream;base64,",
			"byteLength":9264
		}
	],
	"bufferViews":[
		{
			"buffer":0,
			"byteOffset":0,
			"target":34963,
			"byteLength":3648
		},
		{
			"buffer":0,
			"byteOffset":3648,
			"byteStride":12,
			"target":34962,
			"byteLength":3888
		},
		{
			"buffer":0,
			"byteOffset":7536,
			"byteStride":12,
			"target":34962,
			"byteLength":1728
		}
	],
	"materials":[
		{
			"pbrMetallicRoughness":{
				"baseColorFactor":[
					1.000000,
					1.000000,
					1.000000,
					1.000000
				],
				"roughnessFactor":0.500000,
				"metallicFactor":0.250000
			},
			"doubleSided":true,
			"name":""
		}
	],
	"meshes":[
		{
		"primitives":[
			{
			"indices":0,
			"material":0,
			"mode":4,
				"attributes":{
					"POSITION":1,
					"NORMAL":2
				}
			},
			{
			"indices":3,
			"material":0,
			"mode":4,
				"attributes":{
					"POSITION":4,
					"NORMAL":5
				}
			},
			{
			"indices":6,
			"material":0,
			"mode":4,
				"attributes":{
					"POSITION":7,
					"NORMAL":8
				}
			},
			{
			"indices":9,
			"material":0,
			"mode":4,
				"attributes":{
					"POSITION":10,
					"NORMAL":11
				}
			},
			{
			"indices":12,
			"material":0,
			"mode":4,
				"attributes":{
					"POSITION":13
				}
			},
			{
			"indices":14,
			"material":0,
			"mode":4,
				"attributes":{
					"POSITION":15
				}
			},
			{
			"indices":16,
			"material":0,
			"mode":4,
				"attributes":{
					"POSITION":17
				}
			},
			{
			"indices":18,
			"material":0,
			"mode":4,
				"attributes":{
					"POSITION":19
				}
			},
			{
			"indices":20,
			"material":0,
			"mode":4,
				"attributes":{
					"POSITION":21
				}
			},
			{
			"indices":22,
			"material":0,
			"mode":4,
				"attributes":{
					"POSITION":23
				}
			},
			{
			"indices":24,
			"material":0,
			"mode":4,
				"attributes":{
					"POSITION":25
				}
			},
			{
			"indices":26,
			"material":0,
			"mode":4,
				"attributes":{
					"POSITION":27
				}
			},
			{
			"indices":28,
			"material":0,
			"mode":4,
				"attributes":{
					"POSITION":29
				}
			}
		]
		}
	],
	"nodes":[
		{
			"mesh":0,
			"name":""
		}
	],
	"scenes":[
		{
			"nodes":[
				0
			],
			"name":""
		}
	],
	"scene":0
}
