{
	"asset":{
		"copyright":"2022 (c) PISX",
		"generator":"Solidworks to GLTF",
		"version":"2.0"
	},
	"accessors":[
		{
			"bufferView":0,
			"byteOffset":0,
			"componentType":5125,
			"count":216,
			"max":[
				71
			],
			"min":[
				0
			],
			"type":"SCALAR"
		},
		{
			"bufferView":1,
			"byteOffset":0,
			"componentType":5126,
			"count":72,
			"max":[
				8.000000,
				11.000000,
				8.000000
			],
			"min":[
				-8.000000,
				5.000000,
				-8.000000
			],
			"type":"VEC3"
		},
		{
			"bufferView":2,
			"byteOffset":0,
			"componentType":5126,
			"count":72,
			"max":[
				1.000000,
				0.000000,
				1.000000
			],
			"min":[
				-1.000000,
				0.000000,
				-1.000000
			],
			"type":"VEC3"
		},
		{
			"bufferView":0,
			"byteOffset":864,
			"componentType":5125,
			"count":156,
			"max":[
				51
			],
			"min":[
				0
			],
			"type":"SCALAR"
		},
		{
			"bufferView":1,
			"byteOffset":864,
			"componentType":5126,
			"count":52,
			"max":[
				3.970835,
				11.000000,
				4.000000
			],
			"min":[
				-3.970835,
				0.000000,
				-4.000000
			],
			"type":"VEC3"
		},
		{
			"bufferView":2,
			"byteOffset":864,
			"componentType":5126,
			"count":52,
			"max":[
				0.992709,
				0.000000,
				1.000000
			],
			"min":[
				-0.992709,
				0.000000,
				-1.000000
			],
			"type":"VEC3"
		},
		{
			"bufferView":0,
			"byteOffset":1488,
			"componentType":5125,
			"count":108,
			"max":[
				37
			],
			"min":[
				0
			],
			"type":"SCALAR"
		},
		{
			"bufferView":1,
			"byteOffset":1488,
			"componentType":5126,
			"count":38,
			"max":[
				-17.000000,
				-7.000000,
				8.000000
			],
			"min":[
				-25.000000,
				-10.000000,
				-8.000000
			],
			"type":"VEC3"
		},
		{
			"bufferView":2,
			"byteOffset":1488,
			"componentType":5126,
			"count":38,
			"max":[
				1.000000,
				0.000000,
				1.000000
			],
			"min":[
				0.000000,
				0.000000,
				-1.000000
			],
			"type":"VEC3"
		},
		{
			"bufferView":0,
			"byteOffset":1920,
			"componentType":5125,
			"count":90,
			"max":[
				31
			],
			"min":[
				0
			],
			"type":"SCALAR"
		},
		{
			"bufferView":1,
			"byteOffset":1944,
			"componentType":5126,
			"count":32,
			"max":[
				-20.027390,
				-7.000000,
				5.000000
			],
			"min":[
				-25.000000,
				-15.000000,
				-5.000000
			],
			"type":"VEC3"
		},
		{
			"bufferView":2,
			"byteOffset":1944,
			"componentType":5126,
			"count":32,
			"max":[
				0.000000,
				0.000000,
				1.000000
			],
			"min":[
				-0.994522,
				0.000000,
				-1.000000
			],
			"type":"VEC3"
		},
		{
			"bufferView":0,
			"byteOffset":2280,
			"componentType":5125,
			"count":12,
			"max":[
				5
			],
			"min":[
				0
			],
			"type":"SCALAR"
		},
		{
			"bufferView":1,
			"byteOffset":2328,
			"componentType":5126,
			"count":6,
			"max":[
				-25.000000,
				-7.000000,
				10.500000
			],
			"min":[
				-25.000000,
				-15.000000,
				5.000000
			],
			"type":"VEC3"
		},
		{
			"bufferView":0,
			"byteOffset":2328,
			"componentType":5125,
			"count":63,
			"max":[
				22
			],
			"min":[
				0
			],
			"type":"SCALAR"
		},
		{
			"bufferView":1,
			"byteOffset":2400,
			"componentType":5126,
			"count":23,
			"max":[
				-15.000000,
				-10.000000,
				10.500000
			],
			"min":[
				-25.000000,
				-10.000000,
				-10.500000
			],
			"type":"VEC3"
		},
		{
			"bufferView":0,
			"byteOffset":2580,
			"componentType":5125,
			"count":90,
			"max":[
				29
			],
			"min":[
				0
			],
			"type":"SCALAR"
		},
		{
			"bufferView":1,
			"byteOffset":2676,
			"componentType":5126,
			"count":30,
			"max":[
				11.000000,
				0.000000,
				10.500000
			],
			"min":[
				-10.000000,
				0.000000,
				-10.500000
			],
			"type":"VEC3"
		},
		{
			"bufferView":0,
			"byteOffset":2940,
			"componentType":5125,
			"count":6,
			"max":[
				3
			],
			"min":[
				0
			],
			"type":"SCALAR"
		},
		{
			"bufferView":1,
			"byteOffset":3036,
			"componentType":5126,
			"count":4,
			"max":[
				11.000000,
				5.000000,
				10.500000
			],
			"min":[
				11.000000,
				0.000000,
				-10.500000
			],
			"type":"VEC3"
		},
		{
			"bufferView":0,
			"byteOffset":2964,
			"componentType":5125,
			"count":18,
			"max":[
				7
			],
			"min":[
				0
			],
			"type":"SCALAR"
		},
		{
			"bufferView":1,
			"byteOffset":3084,
			"componentType":5126,
			"count":8,
			"max":[
				11.000000,
				5.000000,
				-10.500000
			],
			"min":[
				-25.000000,
				-15.000000,
				-10.500000
			],
			"type":"VEC3"
		},
		{
			"bufferView":0,
			"byteOffset":3036,
			"componentType":5125,
			"count":6,
			"max":[
				3
			],
			"min":[
				0
			],
			"type":"SCALAR"
		},
		{
			"bufferView":1,
			"byteOffset":3180,
			"componentType":5126,
			"count":4,
			"max":[
				-15.000000,
				5.000000,
				10.500000
			],
			"min":[
				-15.000000,
				-10.000000,
				-10.500000
			],
			"type":"VEC3"
		},
		{
			"bufferView":0,
			"byteOffset":3060,
			"componentType":5125,
			"count":18,
			"max":[
				7
			],
			"min":[
				0
			],
			"type":"SCALAR"
		},
		{
			"bufferView":1,
			"byteOffset":3228,
			"componentType":5126,
			"count":8,
			"max":[
				11.000000,
				5.000000,
				10.500000
			],
			"min":[
				-25.000000,
				-15.000000,
				10.500000
			],
			"type":"VEC3"
		},
		{
			"bufferView":0,
			"byteOffset":3132,
			"componentType":5125,
			"count":120,
			"max":[
				39
			],
			"min":[
				0
			],
			"type":"SCALAR"
		},
		{
			"bufferView":1,
			"byteOffset":3324,
			"componentType":5126,
			"count":40,
			"max":[
				11.000000,
				5.000000,
				10.500000
			],
			"min":[
				-15.000000,
				5.000000,
				-10.500000
			],
			"type":"VEC3"
		},
		{
			"bufferView":0,
			"byteOffset":3612,
			"componentType":5125,
			"count":186,
			"max":[
				61
			],
			"min":[
				0
			],
			"type":"SCALAR"
		},
		{
			"bufferView":1,
			"byteOffset":3804,
			"componentType":5126,
			"count":62,
			"max":[
				8.000000,
				11.000000,
				8.000000
			],
			"min":[
				-8.000000,
				11.000000,
				-8.000000
			],
			"type":"VEC3"
		},
		{
			"bufferView":0,
			"byteOffset":4356,
			"componentType":5125,
			"count":6,
			"max":[
				3
			],
			"min":[
				0
			],
			"type":"SCALAR"
		},
		{
			"bufferView":1,
			"byteOffset":4548,
			"componentType":5126,
			"count":4,
			"max":[
				-10.000000,
				-0.000000,
				10.500000
			],
			"min":[
				-10.000000,
				-15.000000,
				-10.500000
			],
			"type":"VEC3"
		},
		{
			"bufferView":0,
			"byteOffset":4380,
			"componentType":5125,
			"count":54,
			"max":[
				19
			],
			"min":[
				0
			],
			"type":"SCALAR"
		},
		{
			"bufferView":1,
			"byteOffset":4596,
			"componentType":5126,
			"count":20,
			"max":[
				-10.000000,
				-15.000000,
				10.500000
			],
			"min":[
				-25.000000,
				-15.000000,
				-10.500000
			],
			"type":"VEC3"
		},
		{
			"bufferView":0,
			"byteOffset":4596,
			"componentType":5125,
			"count":12,
			"max":[
				5
			],
			"min":[
				0
			],
			"type":"SCALAR"
		},
		{
			"bufferView":1,
			"byteOffset":4836,
			"componentType":5126,
			"count":6,
			"max":[
				-25.000000,
				-7.000000,
				-5.000000
			],
			"min":[
				-25.000000,
				-15.000000,
				-10.500000
			],
			"type":"VEC3"
		},
		{
			"bufferView":0,
			"byteOffset":4644,
			"componentType":5125,
			"count":99,
			"max":[
				34
			],
			"min":[
				0
			],
			"type":"SCALAR"
		},
		{
			"bufferView":1,
			"byteOffset":4908,
			"componentType":5126,
			"count":35,
			"max":[
				-17.000000,
				-7.000000,
				8.000000
			],
			"min":[
				-25.000000,
				-7.000000,
				-8.000000
			],
			"type":"VEC3"
		}

	],
	"buffers":[
		{
			"uri":"data:application/octet-stream;base64,",
			"byteLength":12696
		}
	],
	"bufferViews":[
		{
			"buffer":0,
			"byteOffset":0,
			"target":34963,
			"byteLength":5040
		},
		{
			"buffer":0,
			"byteOffset":5040,
			"byteStride":12,
			"target":34962,
			"byteLength":5328
		},
		{
			"buffer":0,
			"byteOffset":10368,
			"byteStride":12,
			"target":34962,
			"byteLength":2328
		}
	],
	"materials":[
		{
			"pbrMetallicRoughness":{
				"baseColorFactor":[
					0.792157,
					0.819608,
					0.933333,
					1.000000
				],
				"roughnessFactor":0.500000,
				"metallicFactor":0.250000
			},
			"doubleSided":true,
			"name":""
		}
	],
	"meshes":[
		{
		"primitives":[
			{
			"indices":0,
			"material":0,
			"mode":4,
				"attributes":{
					"POSITION":1,
					"NORMAL":2
				}
			},
			{
			"indices":3,
			"material":0,
			"mode":4,
				"attributes":{
					"POSITION":4,
					"NORMAL":5
				}
			},
			{
			"indices":6,
			"material":0,
			"mode":4,
				"attributes":{
					"POSITION":7,
					"NORMAL":8
				}
			},
			{
			"indices":9,
			"material":0,
			"mode":4,
				"attributes":{
					"POSITION":10,
					"NORMAL":11
				}
			},
			{
			"indices":12,
			"material":0,
			"mode":4,
				"attributes":{
					"POSITION":13
				}
			},
			{
			"indices":14,
			"material":0,
			"mode":4,
				"attributes":{
					"POSITION":15
				}
			},
			{
			"indices":16,
			"material":0,
			"mode":4,
				"attributes":{
					"POSITION":17
				}
			},
			{
			"indices":18,
			"material":0,
			"mode":4,
				"attributes":{
					"POSITION":19
				}
			},
			{
			"indices":20,
			"material":0,
			"mode":4,
				"attributes":{
					"POSITION":21
				}
			},
			{
			"indices":22,
			"material":0,
			"mode":4,
				"attributes":{
					"POSITION":23
				}
			},
			{
			"indices":24,
			"material":0,
			"mode":4,
				"attributes":{
					"POSITION":25
				}
			},
			{
			"indices":26,
			"material":0,
			"mode":4,
				"attributes":{
					"POSITION":27
				}
			},
			{
			"indices":28,
			"material":0,
			"mode":4,
				"attributes":{
					"POSITION":29
				}
			},
			{
			"indices":30,
			"material":0,
			"mode":4,
				"attributes":{
					"POSITION":31
				}
			},
			{
			"indices":32,
			"material":0,
			"mode":4,
				"attributes":{
					"POSITION":33
				}
			},
			{
			"indices":34,
			"material":0,
			"mode":4,
				"attributes":{
					"POSITION":35
				}
			},
			{
			"indices":36,
			"material":0,
			"mode":4,
				"attributes":{
					"POSITION":37
				}
			}
		]
		}
	],
	"nodes":[
		{
			"mesh":0,
			"name":""
		}
	],
	"scenes":[
		{
			"nodes":[
				0
			],
			"name":""
		}
	],
	"scene":0
}
