{
	"asset":{
		"copyright":"2022 (c) PISX",
		"generator":"Solidworks to GLTF",
		"version":"2.0"
	},
	"accessors":[
		{
			"bufferView":0,
			"byteOffset":0,
			"componentType":5125,
			"count":300,
			"max":[
				99
			],
			"min":[
				0
			],
			"type":"SCALAR"
		},
		{
			"bufferView":1,
			"byteOffset":0,
			"componentType":5126,
			"count":100,
			"max":[
				54.480785,
				100.000000,
				54.508789
			],
			"min":[
				-54.480785,
				0.000000,
				-54.508789
			],
			"type":"VEC3"
		},
		{
			"bufferView":2,
			"byteOffset":0,
			"componentType":5126,
			"count":100,
			"max":[
				0.999486,
				0.000000,
				1.000000
			],
			"min":[
				-0.999486,
				0.000000,
				-1.000000
			],
			"type":"VEC3"
		},
		{
			"bufferView":0,
			"byteOffset":1200,
			"componentType":5125,
			"count":150,
			"max":[
				50
			],
			"min":[
				0
			],
			"type":"SCALAR"
		},
		{
			"bufferView":1,
			"byteOffset":1200,
			"componentType":5126,
			"count":51,
			"max":[
				54.480785,
				100.000000,
				54.508789
			],
			"min":[
				-54.480785,
				100.000000,
				-54.508789
			],
			"type":"VEC3"
		},
		{
			"bufferView":0,
			"byteOffset":1800,
			"componentType":5125,
			"count":150,
			"max":[
				50
			],
			"min":[
				0
			],
			"type":"SCALAR"
		},
		{
			"bufferView":1,
			"byteOffset":1812,
			"componentType":5126,
			"count":51,
			"max":[
				54.480785,
				0.000000,
				54.508789
			],
			"min":[
				-54.480785,
				0.000000,
				-54.508789
			],
			"type":"VEC3"
		}

	],
	"buffers":[
		{
			"uri":"data:application/octet-stream;base64,",
			"byteLength":6024
		}
	],
	"bufferViews":[
		{
			"buffer":0,
			"byteOffset":0,
			"target":34963,
			"byteLength":2400
		},
		{
			"buffer":0,
			"byteOffset":2400,
			"byteStride":12,
			"target":34962,
			"byteLength":2424
		},
		{
			"buffer":0,
			"byteOffset":4824,
			"byteStride":12,
			"target":34962,
			"byteLength":1200
		}
	],
	"materials":[
		{
			"pbrMetallicRoughness":{
				"baseColorFactor":[
					1.000000,
					1.000000,
					1.000000,
					1.000000
				],
				"roughnessFactor":0.500000,
				"metallicFactor":0.500000
			},
			"doubleSided":true,
			"name":""
		}
	],
	"meshes":[
		{
		"primitives":[
			{
			"indices":0,
			"material":0,
			"mode":4,
				"attributes":{
					"POSITION":1,
					"NORMAL":2
				}
			},
			{
			"indices":3,
			"material":0,
			"mode":4,
				"attributes":{
					"POSITION":4
				}
			},
			{
			"indices":5,
			"material":0,
			"mode":4,
				"attributes":{
					"POSITION":6
				}
			}
		]
		}
	],
	"nodes":[
		{
			"mesh":0,
			"name":""
		}
	],
	"scenes":[
		{
			"nodes":[
				0
			],
			"name":""
		}
	],
	"scene":0
}
