{
	"asset":{
		"copyright":"2022 (c) PISX",
		"generator":"Solidworks to GLTF",
		"version":"2.0"
	},
	"accessors":[
		{
			"bufferView":0,
			"byteOffset":0,
			"componentType":5125,
			"count":108,
			"max":[
				37
			],
			"min":[
				0
			],
			"type":"SCALAR"
		},
		{
			"bufferView":1,
			"byteOffset":0,
			"componentType":5126,
			"count":38,
			"max":[
				11.000000,
				40.000000,
				-16.000000
			],
			"min":[
				-15.000000,
				27.000000,
				-24.000000
			],
			"type":"VEC3"
		},
		{
			"bufferView":2,
			"byteOffset":0,
			"componentType":5126,
			"count":38,
			"max":[
				1.000000,
				1.000000,
				0.000000
			],
			"min":[
				-1.000000,
				-0.000000,
				0.000000
			],
			"type":"VEC3"
		},
		{
			"bufferView":0,
			"byteOffset":432,
			"componentType":5125,
			"count":180,
			"max":[
				59
			],
			"min":[
				0
			],
			"type":"SCALAR"
		},
		{
			"bufferView":1,
			"byteOffset":456,
			"componentType":5126,
			"count":60,
			"max":[
				8.950697,
				8.000000,
				9.000000
			],
			"min":[
				-8.950697,
				0.000000,
				-9.000000
			],
			"type":"VEC3"
		},
		{
			"bufferView":2,
			"byteOffset":456,
			"componentType":5126,
			"count":60,
			"max":[
				0.994522,
				0.000000,
				1.000000
			],
			"min":[
				-0.994522,
				0.000000,
				-1.000000
			],
			"type":"VEC3"
		},
		{
			"bufferView":0,
			"byteOffset":1152,
			"componentType":5125,
			"count":9,
			"max":[
				4
			],
			"min":[
				0
			],
			"type":"SCALAR"
		},
		{
			"bufferView":1,
			"byteOffset":1176,
			"componentType":5126,
			"count":5,
			"max":[
				-15.000000,
				40.000000,
				-16.000000
			],
			"min":[
				-31.000000,
				40.000000,
				-24.000000
			],
			"type":"VEC3"
		},
		{
			"bufferView":0,
			"byteOffset":1188,
			"componentType":5125,
			"count":102,
			"max":[
				33
			],
			"min":[
				0
			],
			"type":"SCALAR"
		},
		{
			"bufferView":1,
			"byteOffset":1236,
			"componentType":5126,
			"count":34,
			"max":[
				18.000000,
				8.000000,
				15.000000
			],
			"min":[
				-22.000000,
				8.000000,
				-16.000000
			],
			"type":"VEC3"
		},
		{
			"bufferView":0,
			"byteOffset":1596,
			"componentType":5125,
			"count":63,
			"max":[
				22
			],
			"min":[
				0
			],
			"type":"SCALAR"
		},
		{
			"bufferView":1,
			"byteOffset":1644,
			"componentType":5126,
			"count":23,
			"max":[
				18.000000,
				40.000000,
				-16.000000
			],
			"min":[
				-22.000000,
				8.000000,
				-16.000000
			],
			"type":"VEC3"
		},
		{
			"bufferView":0,
			"byteOffset":1848,
			"componentType":5125,
			"count":63,
			"max":[
				22
			],
			"min":[
				0
			],
			"type":"SCALAR"
		},
		{
			"bufferView":1,
			"byteOffset":1920,
			"componentType":5126,
			"count":23,
			"max":[
				27.000000,
				40.000000,
				-24.000000
			],
			"min":[
				-31.000000,
				0.000000,
				-24.000000
			],
			"type":"VEC3"
		},
		{
			"bufferView":0,
			"byteOffset":2100,
			"componentType":5125,
			"count":9,
			"max":[
				4
			],
			"min":[
				0
			],
			"type":"SCALAR"
		},
		{
			"bufferView":1,
			"byteOffset":2196,
			"componentType":5126,
			"count":5,
			"max":[
				-31.000000,
				40.000000,
				15.000000
			],
			"min":[
				-31.000000,
				0.000000,
				-24.000000
			],
			"type":"VEC3"
		},
		{
			"bufferView":0,
			"byteOffset":2136,
			"componentType":5125,
			"count":15,
			"max":[
				6
			],
			"min":[
				0
			],
			"type":"SCALAR"
		},
		{
			"bufferView":1,
			"byteOffset":2256,
			"componentType":5126,
			"count":7,
			"max":[
				27.000000,
				40.000000,
				15.000000
			],
			"min":[
				-31.000000,
				0.000000,
				15.000000
			],
			"type":"VEC3"
		},
		{
			"bufferView":0,
			"byteOffset":2196,
			"componentType":5125,
			"count":6,
			"max":[
				3
			],
			"min":[
				0
			],
			"type":"SCALAR"
		},
		{
			"bufferView":1,
			"byteOffset":2340,
			"componentType":5126,
			"count":4,
			"max":[
				27.000000,
				40.000000,
				15.000000
			],
			"min":[
				27.000000,
				0.000000,
				-24.000000
			],
			"type":"VEC3"
		},
		{
			"bufferView":0,
			"byteOffset":2220,
			"componentType":5125,
			"count":102,
			"max":[
				33
			],
			"min":[
				0
			],
			"type":"SCALAR"
		},
		{
			"bufferView":1,
			"byteOffset":2388,
			"componentType":5126,
			"count":34,
			"max":[
				27.000000,
				0.000000,
				15.000000
			],
			"min":[
				-31.000000,
				0.000000,
				-24.000000
			],
			"type":"VEC3"
		},
		{
			"bufferView":0,
			"byteOffset":2628,
			"componentType":5125,
			"count":6,
			"max":[
				3
			],
			"min":[
				0
			],
			"type":"SCALAR"
		},
		{
			"bufferView":1,
			"byteOffset":2796,
			"componentType":5126,
			"count":4,
			"max":[
				18.000000,
				40.000000,
				15.000000
			],
			"min":[
				18.000000,
				8.000000,
				-16.000000
			],
			"type":"VEC3"
		},
		{
			"bufferView":0,
			"byteOffset":2652,
			"componentType":5125,
			"count":12,
			"max":[
				5
			],
			"min":[
				0
			],
			"type":"SCALAR"
		},
		{
			"bufferView":1,
			"byteOffset":2844,
			"componentType":5126,
			"count":6,
			"max":[
				27.000000,
				40.000000,
				15.000000
			],
			"min":[
				11.000000,
				40.000000,
				-24.000000
			],
			"type":"VEC3"
		},
		{
			"bufferView":0,
			"byteOffset":2700,
			"componentType":5125,
			"count":6,
			"max":[
				3
			],
			"min":[
				0
			],
			"type":"SCALAR"
		},
		{
			"bufferView":1,
			"byteOffset":2916,
			"componentType":5126,
			"count":4,
			"max":[
				-22.000000,
				40.000000,
				15.000000
			],
			"min":[
				-31.000000,
				8.000000,
				-16.000000
			],
			"type":"VEC3"
		},
		{
			"bufferView":0,
			"byteOffset":2724,
			"componentType":5125,
			"count":3,
			"max":[
				2
			],
			"min":[
				0
			],
			"type":"SCALAR"
		},
		{
			"bufferView":1,
			"byteOffset":2964,
			"componentType":5126,
			"count":3,
			"max":[
				-22.000000,
				40.000000,
				15.000000
			],
			"min":[
				-22.000000,
				8.000000,
				-16.000000
			],
			"type":"VEC3"
		}

	],
	"buffers":[
		{
			"uri":"data:application/octet-stream;base64,",
			"byteLength":6912
		}
	],
	"bufferViews":[
		{
			"buffer":0,
			"byteOffset":0,
			"target":34963,
			"byteLength":2736
		},
		{
			"buffer":0,
			"byteOffset":2736,
			"byteStride":12,
			"target":34962,
			"byteLength":3000
		},
		{
			"buffer":0,
			"byteOffset":5736,
			"byteStride":12,
			"target":34962,
			"byteLength":1176
		}
	],
	"materials":[
		{
			"pbrMetallicRoughness":{
				"baseColorFactor":[
					0.792157,
					0.819608,
					0.933333,
					1.000000
				],
				"roughnessFactor":0.500000,
				"metallicFactor":0.250000
			},
			"doubleSided":true,
			"name":""
		}
	],
	"meshes":[
		{
		"primitives":[
			{
			"indices":0,
			"material":0,
			"mode":4,
				"attributes":{
					"POSITION":1,
					"NORMAL":2
				}
			},
			{
			"indices":3,
			"material":0,
			"mode":4,
				"attributes":{
					"POSITION":4,
					"NORMAL":5
				}
			},
			{
			"indices":6,
			"material":0,
			"mode":4,
				"attributes":{
					"POSITION":7
				}
			},
			{
			"indices":8,
			"material":0,
			"mode":4,
				"attributes":{
					"POSITION":9
				}
			},
			{
			"indices":10,
			"material":0,
			"mode":4,
				"attributes":{
					"POSITION":11
				}
			},
			{
			"indices":12,
			"material":0,
			"mode":4,
				"attributes":{
					"POSITION":13
				}
			},
			{
			"indices":14,
			"material":0,
			"mode":4,
				"attributes":{
					"POSITION":15
				}
			},
			{
			"indices":16,
			"material":0,
			"mode":4,
				"attributes":{
					"POSITION":17
				}
			},
			{
			"indices":18,
			"material":0,
			"mode":4,
				"attributes":{
					"POSITION":19
				}
			},
			{
			"indices":20,
			"material":0,
			"mode":4,
				"attributes":{
					"POSITION":21
				}
			},
			{
			"indices":22,
			"material":0,
			"mode":4,
				"attributes":{
					"POSITION":23
				}
			},
			{
			"indices":24,
			"material":0,
			"mode":4,
				"attributes":{
					"POSITION":25
				}
			},
			{
			"indices":26,
			"material":0,
			"mode":4,
				"attributes":{
					"POSITION":27
				}
			},
			{
			"indices":28,
			"material":0,
			"mode":4,
				"attributes":{
					"POSITION":29
				}
			}
		]
		}
	],
	"nodes":[
		{
			"mesh":0,
			"name":""
		}
	],
	"scenes":[
		{
			"nodes":[
				0
			],
			"name":""
		}
	],
	"scene":0
}
