{
	"asset":{
		"copyright":"2022 (c) PISX",
		"generator":"Solidworks to GLTF",
		"version":"2.0"
	},
	"accessors":[
		{
			"bufferView":0,
			"byteOffset":0,
			"componentType":5125,
			"count":144,
			"max":[
				47
			],
			"min":[
				0
			],
			"type":"SCALAR"
		},
		{
			"bufferView":1,
			"byteOffset":0,
			"componentType":5126,
			"count":48,
			"max":[
				-29.000000,
				10.000000,
				27.000000
			],
			"min":[
				-35.000000,
				-0.000000,
				21.000000
			],
			"type":"VEC3"
		},
		{
			"bufferView":2,
			"byteOffset":0,
			"componentType":5126,
			"count":48,
			"max":[
				1.000000,
				0.000000,
				1.000000
			],
			"min":[
				-1.000000,
				0.000000,
				-1.000000
			],
			"type":"VEC3"
		},
		{
			"bufferView":0,
			"byteOffset":576,
			"componentType":5125,
			"count":144,
			"max":[
				47
			],
			"min":[
				0
			],
			"type":"SCALAR"
		},
		{
			"bufferView":1,
			"byteOffset":576,
			"componentType":5126,
			"count":48,
			"max":[
				-4.000000,
				10.000000,
				27.000000
			],
			"min":[
				-10.000000,
				-0.000000,
				21.000000
			],
			"type":"VEC3"
		},
		{
			"bufferView":2,
			"byteOffset":576,
			"componentType":5126,
			"count":48,
			"max":[
				1.000000,
				0.000000,
				1.000000
			],
			"min":[
				-1.000000,
				0.000000,
				-1.000000
			],
			"type":"VEC3"
		},
		{
			"bufferView":0,
			"byteOffset":1152,
			"componentType":5125,
			"count":12,
			"max":[
				5
			],
			"min":[
				0
			],
			"type":"SCALAR"
		},
		{
			"bufferView":1,
			"byteOffset":1152,
			"componentType":5126,
			"count":6,
			"max":[
				0.000000,
				28.000000,
				10.000000
			],
			"min":[
				-39.000000,
				10.000000,
				10.000000
			],
			"type":"VEC3"
		},
		{
			"bufferView":0,
			"byteOffset":1200,
			"componentType":5125,
			"count":162,
			"max":[
				51
			],
			"min":[
				0
			],
			"type":"SCALAR"
		},
		{
			"bufferView":1,
			"byteOffset":1224,
			"componentType":5126,
			"count":52,
			"max":[
				0.000000,
				0.000000,
				33.000000
			],
			"min":[
				-45.000000,
				-0.000000,
				0.000000
			],
			"type":"VEC3"
		},
		{
			"bufferView":0,
			"byteOffset":1848,
			"componentType":5125,
			"count":18,
			"max":[
				7
			],
			"min":[
				0
			],
			"type":"SCALAR"
		},
		{
			"bufferView":1,
			"byteOffset":1848,
			"componentType":5126,
			"count":8,
			"max":[
				0.000000,
				34.000000,
				33.000000
			],
			"min":[
				0.000000,
				0.000000,
				0.000000
			],
			"type":"VEC3"
		},
		{
			"bufferView":0,
			"byteOffset":1920,
			"componentType":5125,
			"count":6,
			"max":[
				3
			],
			"min":[
				0
			],
			"type":"SCALAR"
		},
		{
			"bufferView":1,
			"byteOffset":1944,
			"componentType":5126,
			"count":4,
			"max":[
				0.000000,
				34.000000,
				33.000000
			],
			"min":[
				-14.000000,
				34.000000,
				0.000000
			],
			"type":"VEC3"
		},
		{
			"bufferView":0,
			"byteOffset":1944,
			"componentType":5125,
			"count":12,
			"max":[
				5
			],
			"min":[
				0
			],
			"type":"SCALAR"
		},
		{
			"bufferView":1,
			"byteOffset":1992,
			"componentType":5126,
			"count":6,
			"max":[
				-14.000000,
				34.000000,
				33.000000
			],
			"min":[
				-28.000000,
				19.000000,
				0.000000
			],
			"type":"VEC3"
		},
		{
			"bufferView":0,
			"byteOffset":1992,
			"componentType":5125,
			"count":12,
			"max":[
				5
			],
			"min":[
				0
			],
			"type":"SCALAR"
		},
		{
			"bufferView":1,
			"byteOffset":2064,
			"componentType":5126,
			"count":6,
			"max":[
				-28.000000,
				19.000000,
				33.000000
			],
			"min":[
				-45.000000,
				19.000000,
				0.000000
			],
			"type":"VEC3"
		},
		{
			"bufferView":0,
			"byteOffset":2040,
			"componentType":5125,
			"count":6,
			"max":[
				3
			],
			"min":[
				0
			],
			"type":"SCALAR"
		},
		{
			"bufferView":1,
			"byteOffset":2136,
			"componentType":5126,
			"count":4,
			"max":[
				-45.000000,
				19.000000,
				33.000000
			],
			"min":[
				-45.000000,
				-0.000000,
				0.000000
			],
			"type":"VEC3"
		},
		{
			"bufferView":0,
			"byteOffset":2064,
			"componentType":5125,
			"count":12,
			"max":[
				5
			],
			"min":[
				0
			],
			"type":"SCALAR"
		},
		{
			"bufferView":1,
			"byteOffset":2184,
			"componentType":5126,
			"count":6,
			"max":[
				0.000000,
				34.000000,
				0.000000
			],
			"min":[
				-45.000000,
				-0.000000,
				0.000000
			],
			"type":"VEC3"
		},
		{
			"bufferView":0,
			"byteOffset":2112,
			"componentType":5125,
			"count":6,
			"max":[
				3
			],
			"min":[
				0
			],
			"type":"SCALAR"
		},
		{
			"bufferView":1,
			"byteOffset":2256,
			"componentType":5126,
			"count":4,
			"max":[
				0.000000,
				28.000000,
				33.000000
			],
			"min":[
				-19.600000,
				28.000000,
				10.000000
			],
			"type":"VEC3"
		},
		{
			"bufferView":0,
			"byteOffset":2136,
			"componentType":5125,
			"count":6,
			"max":[
				3
			],
			"min":[
				0
			],
			"type":"SCALAR"
		},
		{
			"bufferView":1,
			"byteOffset":2304,
			"componentType":5126,
			"count":4,
			"max":[
				0.000000,
				34.000000,
				33.000000
			],
			"min":[
				-19.600000,
				28.000000,
				33.000000
			],
			"type":"VEC3"
		},
		{
			"bufferView":0,
			"byteOffset":2160,
			"componentType":5125,
			"count":6,
			"max":[
				3
			],
			"min":[
				0
			],
			"type":"SCALAR"
		},
		{
			"bufferView":1,
			"byteOffset":2352,
			"componentType":5126,
			"count":4,
			"max":[
				-39.000000,
				19.000000,
				33.000000
			],
			"min":[
				-39.000000,
				10.000000,
				10.000000
			],
			"type":"VEC3"
		},
		{
			"bufferView":0,
			"byteOffset":2184,
			"componentType":5125,
			"count":162,
			"max":[
				51
			],
			"min":[
				0
			],
			"type":"SCALAR"
		},
		{
			"bufferView":1,
			"byteOffset":2400,
			"componentType":5126,
			"count":52,
			"max":[
				0.000000,
				10.000000,
				33.000000
			],
			"min":[
				-39.000000,
				10.000000,
				10.000000
			],
			"type":"VEC3"
		},
		{
			"bufferView":0,
			"byteOffset":2832,
			"componentType":5125,
			"count":12,
			"max":[
				5
			],
			"min":[
				0
			],
			"type":"SCALAR"
		},
		{
			"bufferView":1,
			"byteOffset":3024,
			"componentType":5126,
			"count":6,
			"max":[
				0.000000,
				19.000000,
				33.000000
			],
			"min":[
				-45.000000,
				-0.000000,
				33.000000
			],
			"type":"VEC3"
		}

	],
	"buffers":[
		{
			"uri":"data:application/octet-stream;base64,",
			"byteLength":7128
		}
	],
	"bufferViews":[
		{
			"buffer":0,
			"byteOffset":0,
			"target":34963,
			"byteLength":2880
		},
		{
			"buffer":0,
			"byteOffset":2880,
			"byteStride":12,
			"target":34962,
			"byteLength":3096
		},
		{
			"buffer":0,
			"byteOffset":5976,
			"byteStride":12,
			"target":34962,
			"byteLength":1152
		}
	],
	"materials":[
		{
			"pbrMetallicRoughness":{
				"baseColorFactor":[
					0.792157,
					0.819608,
					0.933333,
					1.000000
				],
				"roughnessFactor":0.500000,
				"metallicFactor":0.250000
			},
			"doubleSided":true,
			"name":""
		}
	],
	"meshes":[
		{
		"primitives":[
			{
			"indices":0,
			"material":0,
			"mode":4,
				"attributes":{
					"POSITION":1,
					"NORMAL":2
				}
			},
			{
			"indices":3,
			"material":0,
			"mode":4,
				"attributes":{
					"POSITION":4,
					"NORMAL":5
				}
			},
			{
			"indices":6,
			"material":0,
			"mode":4,
				"attributes":{
					"POSITION":7
				}
			},
			{
			"indices":8,
			"material":0,
			"mode":4,
				"attributes":{
					"POSITION":9
				}
			},
			{
			"indices":10,
			"material":0,
			"mode":4,
				"attributes":{
					"POSITION":11
				}
			},
			{
			"indices":12,
			"material":0,
			"mode":4,
				"attributes":{
					"POSITION":13
				}
			},
			{
			"indices":14,
			"material":0,
			"mode":4,
				"attributes":{
					"POSITION":15
				}
			},
			{
			"indices":16,
			"material":0,
			"mode":4,
				"attributes":{
					"POSITION":17
				}
			},
			{
			"indices":18,
			"material":0,
			"mode":4,
				"attributes":{
					"POSITION":19
				}
			},
			{
			"indices":20,
			"material":0,
			"mode":4,
				"attributes":{
					"POSITION":21
				}
			},
			{
			"indices":22,
			"material":0,
			"mode":4,
				"attributes":{
					"POSITION":23
				}
			},
			{
			"indices":24,
			"material":0,
			"mode":4,
				"attributes":{
					"POSITION":25
				}
			},
			{
			"indices":26,
			"material":0,
			"mode":4,
				"attributes":{
					"POSITION":27
				}
			},
			{
			"indices":28,
			"material":0,
			"mode":4,
				"attributes":{
					"POSITION":29
				}
			},
			{
			"indices":30,
			"material":0,
			"mode":4,
				"attributes":{
					"POSITION":31
				}
			}
		]
		}
	],
	"nodes":[
		{
			"mesh":0,
			"name":""
		}
	],
	"scenes":[
		{
			"nodes":[
				0
			],
			"name":""
		}
	],
	"scene":0
}
