{
	"asset":{
		"copyright":"2022 (c) PISX",
		"generator":"Solidworks to GLTF",
		"version":"2.0"
	},
	"accessors":[
		{
			"bufferView":0,
			"byteOffset":0,
			"componentType":5125,
			"count":120,
			"max":[
				41
			],
			"min":[
				0
			],
			"type":"SCALAR"
		},
		{
			"bufferView":1,
			"byteOffset":0,
			"componentType":5126,
			"count":42,
			"max":[
				28.000000,
				27.995764,
				12.000000
			],
			"min":[
				-21.447611,
				0.000000,
				-12.000000
			],
			"type":"VEC3"
		},
		{
			"bufferView":2,
			"byteOffset":0,
			"componentType":5126,
			"count":42,
			"max":[
				1.000000,
				0.999849,
				0.000000
			],
			"min":[
				-0.765986,
				0.000000,
				0.000000
			],
			"type":"VEC3"
		},
		{
			"bufferView":0,
			"byteOffset":480,
			"componentType":5125,
			"count":138,
			"max":[
				47
			],
			"min":[
				0
			],
			"type":"SCALAR"
		},
		{
			"bufferView":1,
			"byteOffset":504,
			"componentType":5126,
			"count":48,
			"max":[
				22.000000,
				21.948713,
				16.000000
			],
			"min":[
				-22.000000,
				0.000000,
				12.000000
			],
			"type":"VEC3"
		},
		{
			"bufferView":2,
			"byteOffset":504,
			"componentType":5126,
			"count":48,
			"max":[
				1.000000,
				0.997669,
				0.000000
			],
			"min":[
				-1.000000,
				0.000000,
				0.000000
			],
			"type":"VEC3"
		},
		{
			"bufferView":0,
			"byteOffset":1032,
			"componentType":5125,
			"count":138,
			"max":[
				47
			],
			"min":[
				0
			],
			"type":"SCALAR"
		},
		{
			"bufferView":1,
			"byteOffset":1080,
			"componentType":5126,
			"count":48,
			"max":[
				22.000000,
				21.948713,
				-12.000000
			],
			"min":[
				-22.000000,
				0.000000,
				-16.000000
			],
			"type":"VEC3"
		},
		{
			"bufferView":2,
			"byteOffset":1080,
			"componentType":5126,
			"count":48,
			"max":[
				1.000000,
				0.997669,
				0.000000
			],
			"min":[
				-1.000000,
				0.000000,
				0.000000
			],
			"type":"VEC3"
		},
		{
			"bufferView":0,
			"byteOffset":1584,
			"componentType":5125,
			"count":120,
			"max":[
				41
			],
			"min":[
				0
			],
			"type":"SCALAR"
		},
		{
			"bufferView":1,
			"byteOffset":1656,
			"componentType":5126,
			"count":42,
			"max":[
				16.000000,
				16.000000,
				16.000000
			],
			"min":[
				-16.000000,
				-0.000000,
				-16.000000
			],
			"type":"VEC3"
		},
		{
			"bufferView":2,
			"byteOffset":1656,
			"componentType":5126,
			"count":42,
			"max":[
				1.000000,
				0.000000,
				0.000000
			],
			"min":[
				-1.000000,
				-1.000000,
				0.000000
			],
			"type":"VEC3"
		},
		{
			"bufferView":0,
			"byteOffset":2064,
			"componentType":5125,
			"count":102,
			"max":[
				35
			],
			"min":[
				0
			],
			"type":"SCALAR"
		},
		{
			"bufferView":1,
			"byteOffset":2160,
			"componentType":5126,
			"count":36,
			"max":[
				-36.000000,
				18.000000,
				12.000000
			],
			"min":[
				-47.948811,
				5.000000,
				-12.000000
			],
			"type":"VEC3"
		},
		{
			"bufferView":2,
			"byteOffset":2160,
			"componentType":5126,
			"count":36,
			"max":[
				0.000000,
				0.000000,
				1.000000
			],
			"min":[
				-0.995734,
				-0.000000,
				-1.000000
			],
			"type":"VEC3"
		},
		{
			"bufferView":0,
			"byteOffset":2472,
			"componentType":5125,
			"count":150,
			"max":[
				49
			],
			"min":[
				0
			],
			"type":"SCALAR"
		},
		{
			"bufferView":1,
			"byteOffset":2592,
			"componentType":5126,
			"count":50,
			"max":[
				-30.000000,
				18.000000,
				6.000000
			],
			"min":[
				-42.000000,
				-0.000000,
				-6.000000
			],
			"type":"VEC3"
		},
		{
			"bufferView":2,
			"byteOffset":2592,
			"componentType":5126,
			"count":50,
			"max":[
				1.000000,
				0.000000,
				1.000000
			],
			"min":[
				-1.000000,
				-0.000000,
				-1.000000
			],
			"type":"VEC3"
		},
		{
			"bufferView":0,
			"byteOffset":3072,
			"componentType":5125,
			"count":6,
			"max":[
				3
			],
			"min":[
				0
			],
			"type":"SCALAR"
		},
		{
			"bufferView":1,
			"byteOffset":3192,
			"componentType":5126,
			"count":4,
			"max":[
				-36.000000,
				5.000000,
				12.000000
			],
			"min":[
				-36.000000,
				-0.000000,
				6.000000
			],
			"type":"VEC3"
		},
		{
			"bufferView":0,
			"byteOffset":3096,
			"componentType":5125,
			"count":6,
			"max":[
				3
			],
			"min":[
				0
			],
			"type":"SCALAR"
		},
		{
			"bufferView":1,
			"byteOffset":3240,
			"componentType":5126,
			"count":4,
			"max":[
				-36.000000,
				5.000000,
				-6.000000
			],
			"min":[
				-36.000000,
				-0.000000,
				-12.000000
			],
			"type":"VEC3"
		},
		{
			"bufferView":0,
			"byteOffset":3120,
			"componentType":5125,
			"count":57,
			"max":[
				20
			],
			"min":[
				0
			],
			"type":"SCALAR"
		},
		{
			"bufferView":1,
			"byteOffset":3288,
			"componentType":5126,
			"count":21,
			"max":[
				-16.000000,
				0.000000,
				16.000000
			],
			"min":[
				-36.000000,
				0.000000,
				-16.000000
			],
			"type":"VEC3"
		},
		{
			"bufferView":0,
			"byteOffset":3348,
			"componentType":5125,
			"count":18,
			"max":[
				7
			],
			"min":[
				0
			],
			"type":"SCALAR"
		},
		{
			"bufferView":1,
			"byteOffset":3540,
			"componentType":5126,
			"count":8,
			"max":[
				28.000000,
				0.000000,
				16.000000
			],
			"min":[
				16.000000,
				0.000000,
				-16.000000
			],
			"type":"VEC3"
		},
		{
			"bufferView":0,
			"byteOffset":3420,
			"componentType":5125,
			"count":132,
			"max":[
				43
			],
			"min":[
				0
			],
			"type":"SCALAR"
		},
		{
			"bufferView":1,
			"byteOffset":3636,
			"componentType":5126,
			"count":44,
			"max":[
				-21.447611,
				18.000000,
				12.000000
			],
			"min":[
				-47.948811,
				18.000000,
				-12.000000
			],
			"type":"VEC3"
		},
		{
			"bufferView":0,
			"byteOffset":3948,
			"componentType":5125,
			"count":138,
			"max":[
				47
			],
			"min":[
				0
			],
			"type":"SCALAR"
		},
		{
			"bufferView":1,
			"byteOffset":4164,
			"componentType":5126,
			"count":48,
			"max":[
				28.000000,
				27.995764,
				12.000000
			],
			"min":[
				-36.000000,
				-0.000000,
				12.000000
			],
			"type":"VEC3"
		},
		{
			"bufferView":0,
			"byteOffset":4500,
			"componentType":5125,
			"count":138,
			"max":[
				47
			],
			"min":[
				0
			],
			"type":"SCALAR"
		},
		{
			"bufferView":1,
			"byteOffset":4740,
			"componentType":5126,
			"count":48,
			"max":[
				28.000000,
				27.995764,
				-12.000000
			],
			"min":[
				-36.000000,
				-0.000000,
				-12.000000
			],
			"type":"VEC3"
		},
		{
			"bufferView":0,
			"byteOffset":5052,
			"componentType":5125,
			"count":129,
			"max":[
				44
			],
			"min":[
				0
			],
			"type":"SCALAR"
		},
		{
			"bufferView":1,
			"byteOffset":5316,
			"componentType":5126,
			"count":45,
			"max":[
				22.000000,
				21.948713,
				16.000000
			],
			"min":[
				-22.000000,
				-0.000000,
				16.000000
			],
			"type":"VEC3"
		},
		{
			"bufferView":0,
			"byteOffset":5568,
			"componentType":5125,
			"count":129,
			"max":[
				44
			],
			"min":[
				0
			],
			"type":"SCALAR"
		},
		{
			"bufferView":1,
			"byteOffset":5856,
			"componentType":5126,
			"count":45,
			"max":[
				22.000000,
				21.948713,
				-16.000000
			],
			"min":[
				-22.000000,
				-0.000000,
				-16.000000
			],
			"type":"VEC3"
		},
		{
			"bufferView":0,
			"byteOffset":6084,
			"componentType":5125,
			"count":87,
			"max":[
				30
			],
			"min":[
				0
			],
			"type":"SCALAR"
		},
		{
			"bufferView":1,
			"byteOffset":6396,
			"componentType":5126,
			"count":31,
			"max":[
				-36.000000,
				5.000000,
				12.000000
			],
			"min":[
				-47.948811,
				5.000000,
				-12.000000
			],
			"type":"VEC3"
		}

	],
	"buffers":[
		{
			"uri":"data:application/octet-stream;base64,",
			"byteLength":16392
		}
	],
	"bufferViews":[
		{
			"buffer":0,
			"byteOffset":0,
			"target":34963,
			"byteLength":6432
		},
		{
			"buffer":0,
			"byteOffset":6432,
			"byteStride":12,
			"target":34962,
			"byteLength":6768
		},
		{
			"buffer":0,
			"byteOffset":13200,
			"byteStride":12,
			"target":34962,
			"byteLength":3192
		}
	],
	"materials":[
		{
			"pbrMetallicRoughness":{
				"baseColorFactor":[
					0.792157,
					0.819608,
					0.933333,
					1.000000
				],
				"roughnessFactor":0.500000,
				"metallicFactor":0.250000
			},
			"doubleSided":true,
			"name":""
		}
	],
	"meshes":[
		{
		"primitives":[
			{
			"indices":0,
			"material":0,
			"mode":4,
				"attributes":{
					"POSITION":1,
					"NORMAL":2
				}
			},
			{
			"indices":3,
			"material":0,
			"mode":4,
				"attributes":{
					"POSITION":4,
					"NORMAL":5
				}
			},
			{
			"indices":6,
			"material":0,
			"mode":4,
				"attributes":{
					"POSITION":7,
					"NORMAL":8
				}
			},
			{
			"indices":9,
			"material":0,
			"mode":4,
				"attributes":{
					"POSITION":10,
					"NORMAL":11
				}
			},
			{
			"indices":12,
			"material":0,
			"mode":4,
				"attributes":{
					"POSITION":13,
					"NORMAL":14
				}
			},
			{
			"indices":15,
			"material":0,
			"mode":4,
				"attributes":{
					"POSITION":16,
					"NORMAL":17
				}
			},
			{
			"indices":18,
			"material":0,
			"mode":4,
				"attributes":{
					"POSITION":19
				}
			},
			{
			"indices":20,
			"material":0,
			"mode":4,
				"attributes":{
					"POSITION":21
				}
			},
			{
			"indices":22,
			"material":0,
			"mode":4,
				"attributes":{
					"POSITION":23
				}
			},
			{
			"indices":24,
			"material":0,
			"mode":4,
				"attributes":{
					"POSITION":25
				}
			},
			{
			"indices":26,
			"material":0,
			"mode":4,
				"attributes":{
					"POSITION":27
				}
			},
			{
			"indices":28,
			"material":0,
			"mode":4,
				"attributes":{
					"POSITION":29
				}
			},
			{
			"indices":30,
			"material":0,
			"mode":4,
				"attributes":{
					"POSITION":31
				}
			},
			{
			"indices":32,
			"material":0,
			"mode":4,
				"attributes":{
					"POSITION":33
				}
			},
			{
			"indices":34,
			"material":0,
			"mode":4,
				"attributes":{
					"POSITION":35
				}
			},
			{
			"indices":36,
			"material":0,
			"mode":4,
				"attributes":{
					"POSITION":37
				}
			}
		]
		}
	],
	"nodes":[
		{
			"mesh":0,
			"name":""
		}
	],
	"scenes":[
		{
			"nodes":[
				0
			],
			"name":""
		}
	],
	"scene":0
}
